<?xml version="1.0" encoding="UTF-8"?>
<!DOCTYPE svg PUBLIC "-//W3C//DTD SVG 1.1//EN" "http://www.w3.org/Graphics/SVG/1.1/DTD/svg11.dtd">
<svg xmlns="http://www.w3.org/2000/svg" fill= "#9d8676" version="1.1" width="1920px" height="1920px" style="shape-rendering:geometricPrecision; text-rendering:geometricPrecision; image-rendering:optimizeQuality; fill-rule:evenodd; clip-rule:evenodd" xmlns:xlink="http://www.w3.org/1999/xlink">
<g><path style="opacity:0.999" d="M 224.5,359.5 C 714.5,359.333 1204.5,359.5 1694.5,360C 1744.69,368.341 1778.19,396.508 1795,444.5C 1807.59,493.981 1795.43,536.148 1758.5,571C 1739.97,586.517 1718.64,595.85 1694.5,599C 1204.5,599.667 714.5,599.667 224.5,599C 176.858,591.352 144.024,565.185 126,520.5C 110.389,469.107 121.889,424.94 160.5,388C 179.234,372.592 200.567,363.092 224.5,359.5 Z"/></g>
<g><path style="opacity:0.999" d="M 224.5,839.5 C 714.5,839.333 1204.5,839.5 1694.5,840C 1744.69,848.341 1778.19,876.508 1795,924.5C 1807.59,973.981 1795.43,1016.15 1758.5,1051C 1739.97,1066.52 1718.64,1075.85 1694.5,1079C 1204.5,1079.67 714.5,1079.67 224.5,1079C 176.858,1071.35 144.024,1045.19 126,1000.5C 110.389,949.107 121.889,904.94 160.5,868C 179.234,852.592 200.567,843.092 224.5,839.5 Z"/></g>
<g><path style="opacity:0.999" d="M 224.5,1319.5 C 714.5,1319.33 1204.5,1319.5 1694.5,1320C 1744.69,1328.34 1778.19,1356.51 1795,1404.5C 1807.59,1453.98 1795.43,1496.15 1758.5,1531C 1739.97,1546.52 1718.64,1555.85 1694.5,1559C 1204.5,1559.67 714.5,1559.67 224.5,1559C 176.858,1551.35 144.024,1525.19 126,1480.5C 110.389,1429.11 121.889,1384.94 160.5,1348C 179.234,1332.59 200.567,1323.09 224.5,1319.5 Z"/></g>
</svg>
