<?xml version="1.0" encoding="UTF-8"?>
<!DOCTYPE svg PUBLIC "-//W3C//DTD SVG 1.1//EN" "http://www.w3.org/Graphics/SVG/1.1/DTD/svg11.dtd">
<svg xmlns="http://www.w3.org/2000/svg"  fill= "#9d8676" version="1.1" width="512px" height="512px" style="shape-rendering:geometricPrecision; text-rendering:geometricPrecision; image-rendering:optimizeQuality; fill-rule:evenodd; clip-rule:evenodd" xmlns:xlink="http://www.w3.org/1999/xlink">
<g><path style="opacity:1" d="M 79.5,95.5 C 196.833,95.5 314.167,95.5 431.5,95.5C 431.5,106.167 431.5,116.833 431.5,127.5C 314.167,127.5 196.833,127.5 79.5,127.5C 79.5,116.833 79.5,106.167 79.5,95.5 Z"/></g>
<g><path style="opacity:1" d="M 79.5,239.5 C 196.833,239.5 314.167,239.5 431.5,239.5C 431.5,250.167 431.5,260.833 431.5,271.5C 314.167,271.5 196.833,271.5 79.5,271.5C 79.5,260.833 79.5,250.167 79.5,239.5 Z"/></g>
<g><path style="opacity:1" d="M 79.5,383.5 C 196.833,383.5 314.167,383.5 431.5,383.5C 431.5,394.167 431.5,404.833 431.5,415.5C 314.167,415.5 196.833,415.5 79.5,415.5C 79.5,404.833 79.5,394.167 79.5,383.5 Z"/></g>
</svg>
