<?xml version="1.0" encoding="UTF-8"?>
<!DOCTYPE svg PUBLIC "-//W3C//DTD SVG 1.1//EN" "http://www.w3.org/Graphics/SVG/1.1/DTD/svg11.dtd">
<svg xmlns="http://www.w3.org/2000/svg" version="1.1" width="550px" height="550px" style="fill:#e52421; shape-rendering:geometricPrecision; text-rendering:geometricPrecision; image-rendering:optimizeQuality; fill-rule:evenodd; clip-rule:evenodd" xmlns:xlink="http://www.w3.org/1999/xlink">
    <g id="primarycolour" fill= "#e52421;">
        <g><path style="opacity:0.866" d="M 184.5,119.5 C 195.536,119.046 206.37,120.046 217,122.5C 223.589,121.599 230.256,120.933 237,120.5C 239.379,120.654 241.546,121.32 243.5,122.5C 244.086,122.291 244.586,121.957 245,121.5C 245.966,124.199 247.8,126.033 250.5,127C 255.511,127.5 260.511,127.333 265.5,126.5C 270.173,127.341 274.839,127.841 279.5,128C 281.733,125.767 283.9,123.6 286,121.5C 290.72,122.99 295.554,123.99 300.5,124.5C 312.484,123.553 324.317,124.553 336,127.5C 350.206,123.763 364.373,123.93 378.5,128C 382.333,128.167 386.167,128.333 390,128.5C 399.386,128.006 408.553,127.006 417.5,125.5C 431.111,127.37 444.778,128.87 458.5,130C 459.293,131.085 459.96,132.252 460.5,133.5C 458.79,144.131 455.957,154.464 452,164.5C 450.606,170.177 450.44,175.844 451.5,181.5C 449.796,183.431 449.462,185.431 450.5,187.5C 449.963,192.56 448.63,197.394 446.5,202C 446.63,203.059 447.13,203.892 448,204.5C 451.262,200.553 454.928,197.219 459,194.5C 459.667,193.167 460.333,191.833 461,190.5C 464.5,188.333 467.333,185.5 469.5,182C 475.231,180.635 480.231,177.969 484.5,174C 488.172,172.164 491.838,170.331 495.5,168.5C 505.225,169.446 513.392,173.446 520,180.5C 520.561,182.725 521.561,184.725 523,186.5C 524.573,200.119 524.906,213.786 524,227.5C 522.403,234.023 519.737,240.023 516,245.5C 515.667,248.167 515.333,250.833 515,253.5C 511.271,263.352 507.938,273.352 505,283.5C 498.849,291.788 493.183,300.455 488,309.5C 484.201,312.297 480.701,315.464 477.5,319C 461.141,329.33 446.641,327.163 434,312.5C 432.059,316.249 430.726,320.249 430,324.5C 421.117,339.379 411.45,353.713 401,367.5C 399.933,368.191 398.766,368.691 397.5,369C 390.656,376.179 384.156,383.679 378,391.5C 370.183,397.948 362.683,404.782 355.5,412C 353.833,412.333 352.167,412.667 350.5,413C 343.298,419.103 335.298,423.937 326.5,427.5C 324.163,425.771 321.663,424.438 319,423.5C 311.861,425.425 304.695,427.258 297.5,429C 291.5,429.667 285.5,429.667 279.5,429C 271.53,426.335 263.364,424.169 255,422.5C 249.672,423.885 244.338,424.218 239,423.5C 235.733,424.2 232.566,425.2 229.5,426.5C 220.678,425.057 211.845,423.724 203,422.5C 189.584,424.782 176.084,425.948 162.5,426C 154.844,422.683 148.677,417.516 144,410.5C 141.247,405.992 138.247,401.659 135,397.5C 125.964,380.767 117.297,363.767 109,346.5C 105.65,336.721 104.65,326.721 106,316.5C 105.581,315.328 104.915,314.328 104,313.5C 95.7498,319.043 87.2498,324.21 78.5,329C 74.1126,329.226 69.7793,329.726 65.5,330.5C 60.6053,329.122 55.6053,328.289 50.5,328C 48.1667,327 45.8333,326 43.5,325C 32.8735,313.802 26.8735,300.469 25.5,285C 25.6458,270.859 25.8124,256.692 26,242.5C 28.4468,238.704 29.9468,234.537 30.5,230C 28.1723,217.043 26.1723,204.043 24.5,191C 26.1128,182.824 29.2794,175.324 34,168.5C 38.0096,167.157 41.5096,164.991 44.5,162C 51.6438,159.684 58.6438,160.017 65.5,163C 81.2924,171.062 93.9591,182.562 103.5,197.5C 113.439,183.886 119.605,168.553 122,151.5C 126.448,144.718 131.281,138.218 136.5,132C 142.752,129.914 149.085,128.248 155.5,127C 162.366,123.426 169.7,121.759 177.5,122C 180.004,121.302 182.337,120.469 184.5,119.5 Z M 186.5,126.5 C 197.804,127.597 209.138,128.764 220.5,130C 213.759,133.331 213.925,136.164 221,138.5C 226.12,135.527 231.62,133.527 237.5,132.5C 246.149,135.422 254.983,136.089 264,134.5C 273.686,135.924 283.353,136.924 293,137.5C 299.078,137.107 305.078,137.107 311,137.5C 314.075,136.751 317.075,135.751 320,134.5C 345.766,135.557 371.599,136.724 397.5,138C 399.5,138.667 401.5,139.333 403.5,140C 401.963,141.11 401.297,142.61 401.5,144.5C 403.986,143.756 405.986,142.256 407.5,140C 415.5,139.667 423.5,139.333 431.5,139C 436.362,137.763 441.028,138.596 445.5,141.5C 446.614,142.723 446.781,144.056 446,145.5C 443.3,147.234 441.3,149.568 440,152.5C 437.85,160.445 436.017,168.445 434.5,176.5C 431.031,175.887 429.031,177.221 428.5,180.5C 430.446,180.193 432.113,180.193 433.5,180.5C 431.767,186.391 431.267,192.391 432,198.5C 435.184,200.197 436.85,202.864 437,206.5C 438.067,207.191 439.234,207.691 440.5,208C 437.249,214.392 439.082,217.226 446,216.5C 446.333,215.167 446.667,213.833 447,212.5C 456.793,205.707 465.293,197.541 472.5,188C 480.873,184.732 488.706,180.565 496,175.5C 506.737,176.247 514.071,181.581 518,191.5C 518.667,203.167 518.667,214.833 518,226.5C 516.615,227.551 515.615,228.884 515,230.5C 514.271,235.021 512.937,239.354 511,243.5C 510.83,237.804 510.33,232.138 509.5,226.5C 508.522,226.977 507.689,227.643 507,228.5C 506.259,237.024 504.592,245.357 502,253.5C 500.902,254.967 499.402,255.801 497.5,256C 488.119,269.593 481.619,284.427 478,300.5C 475.215,302.711 472.882,305.377 471,308.5C 470.833,308 470.667,307.5 470.5,307C 474.832,297.506 478.165,287.673 480.5,277.5C 479.891,274.163 478.724,273.83 477,276.5C 470.412,289.43 465.912,303.097 463.5,317.5C 459.071,318.486 454.738,317.986 450.5,316C 445.729,312.862 441.229,309.362 437,305.5C 436.58,301.041 434.747,297.375 431.5,294.5C 432.44,291.868 432.607,289.202 432,286.5C 430.116,284.424 427.949,284.09 425.5,285.5C 424.787,287.776 424.287,290.109 424,292.5C 423.586,292.957 423.086,293.291 422.5,293.5C 422.449,290.335 422.282,287.002 422,283.5C 419.052,280.697 416.552,281.03 414.5,284.5C 412.74,289.46 412.406,294.46 413.5,299.5C 412.863,301.303 411.697,302.636 410,303.5C 408.991,305.025 408.491,306.692 408.5,308.5C 410.451,308.773 411.951,308.107 413,306.5C 413.667,309.833 413.667,313.167 413,316.5C 411.113,322.367 409.78,328.367 409,334.5C 406.623,338.29 404.623,342.29 403,346.5C 393.61,358.55 383.276,369.883 372,380.5C 372.203,376.363 370.37,374.863 366.5,376C 362.6,379.81 358.934,383.81 355.5,388C 350.876,389.31 346.876,391.644 343.5,395C 341.833,395.333 340.167,395.667 338.5,396C 337.87,397.892 336.87,399.559 335.5,401C 327.149,406.175 319.149,411.842 311.5,418C 303.684,420.437 295.684,421.937 287.5,422.5C 279.088,421.218 270.754,419.551 262.5,417.5C 262.343,416.127 262.51,414.793 263,413.5C 265.593,407.977 268.427,402.643 271.5,397.5C 276.017,395.407 280.017,392.574 283.5,389C 287.926,388.129 291.259,385.796 293.5,382C 302.441,377.032 310.441,370.866 317.5,363.5C 313.678,362.105 310.512,363.105 308,366.5C 307.51,365.207 307.343,363.873 307.5,362.5C 304.813,362.336 302.146,362.503 299.5,363C 293.202,369.652 285.535,373.985 276.5,376C 273.461,379.459 269.795,380.459 265.5,379C 259.693,383.988 253.193,387.821 246,390.5C 242.326,389.413 238.826,387.913 235.5,386C 231.79,378.093 225.956,372.593 218,369.5C 217.439,366.71 216.106,364.377 214,362.5C 212.399,366.983 212.066,371.649 213,376.5C 220.292,380.92 226.792,386.42 232.5,393C 237.465,396.983 243.132,398.983 249.5,399C 247.928,402.19 248.761,404.69 252,406.5C 252.781,409.834 253.114,413.167 253,416.5C 252.586,416.043 252.086,415.709 251.5,415.5C 241.201,417.214 231.034,418.214 221,418.5C 213.786,416.721 206.619,415.721 199.5,415.5C 187.602,417.952 175.602,419.119 163.5,419C 154.915,412.417 147.748,404.584 142,395.5C 136.225,384.277 130.225,373.277 124,362.5C 121.584,355.593 118.584,348.927 115,342.5C 113.813,333.217 113.147,323.883 113,314.5C 112.282,310.345 110.782,306.512 108.5,303C 107.167,302.333 105.833,302.333 104.5,303C 98.8246,307.393 93.158,311.727 87.5,316C 82.0162,320.16 75.8496,322.327 69,322.5C 61.6065,322.495 54.4398,321.329 47.5,319C 44.3333,314.5 41.1667,310 38,305.5C 35.8688,299.976 34.2021,294.309 33,288.5C 31.7954,273.848 31.462,259.181 32,244.5C 33.4389,242.725 34.4389,240.725 35,238.5C 36.3327,233.915 36.8327,229.415 36.5,225C 34.5872,213.521 32.9206,202.021 31.5,190.5C 32.8348,179.672 38.5014,172.172 48.5,168C 51.4424,166.876 54.4424,166.542 57.5,167C 63.7254,169.561 69.7254,172.561 75.5,176C 80.5713,180.949 85.738,185.783 91,190.5C 95.4629,195.973 98.6296,202.14 100.5,209C 99.2443,211.488 99.2443,213.988 100.5,216.5C 97.2221,224.753 96.8887,233.087 99.5,241.5C 100.833,242.833 102.167,242.833 103.5,241.5C 105.498,228.512 107.331,215.512 109,202.5C 112.412,195.342 116.078,188.342 120,181.5C 122.442,176.067 124.108,170.4 125,164.5C 127.186,159.395 129.52,154.395 132,149.5C 137.768,145.405 143.268,140.905 148.5,136C 151.167,135.667 153.833,135.333 156.5,135C 162.615,131.037 169.282,129.537 176.5,130.5C 180.007,129.337 183.341,128.004 186.5,126.5 Z M 351.5,207.5 C 351.361,209.337 350.694,209.67 349.5,208.5C 349.957,207.702 350.624,207.369 351.5,207.5 Z M 343.5,405.5 C 344.376,405.369 345.043,405.702 345.5,406.5C 342.402,410.717 338.402,412.717 333.5,412.5C 336.513,409.664 339.846,407.331 343.5,405.5 Z"/></g>
        <g><path style="opacity:0.825" d="M 228.5,159.5 C 245.851,159.244 258.018,166.911 265,182.5C 266.254,186.111 265.088,187.611 261.5,187C 258.695,184.401 256.361,181.401 254.5,178C 247.184,174.426 239.684,171.259 232,168.5C 228.272,169.706 224.439,170.539 220.5,171C 214.242,175.977 207.575,179.977 200.5,183C 196.673,179.905 196.673,176.905 200.5,174C 203.608,171.894 206.941,170.228 210.5,169C 215.543,163.739 221.543,160.572 228.5,159.5 Z"/></g>
        <g><path style="opacity:0.862" d="M 338.5,163.5 C 349.813,165.95 359.313,171.617 367,180.5C 367.758,182.769 367.591,184.936 366.5,187C 365.5,187.667 364.5,187.667 363.5,187C 356.881,181.53 349.215,178.53 340.5,178C 335.514,177.084 330.514,176.75 325.5,177C 318.045,182.783 311.712,189.45 306.5,197C 304.899,197.273 303.399,197.773 302,198.5C 298.275,193.423 298.775,188.923 303.5,185C 309.167,180 314.833,175 320.5,170C 323.184,169.222 325.517,167.889 327.5,166C 331.43,165.758 335.097,164.925 338.5,163.5 Z"/></g>
        <g><path style="opacity:0.91" d="M 228.5,191.5 C 238.168,191.751 247.501,193.585 256.5,197C 259.094,200.051 259.927,203.551 259,207.5C 253.272,209.966 247.772,212.799 242.5,216C 232.49,218.399 222.823,217.399 213.5,213C 208.922,210.788 206.422,207.288 206,202.5C 208.08,200.877 210.246,199.377 212.5,198C 217.789,195.516 223.122,193.349 228.5,191.5 Z"/></g>
        <g><path style="opacity:0.921" d="M 342.5,193.5 C 357.997,191.152 362.831,197.152 357,211.5C 353.833,214.667 350.667,217.833 347.5,221C 338.784,220.603 330.45,221.937 322.5,225C 324.992,230.941 324.992,236.941 322.5,243C 323.27,244.775 324.437,246.275 326,247.5C 326.667,252.167 326.667,256.833 326,261.5C 325.308,262.025 324.808,262.692 324.5,263.5C 324.921,268.159 326.254,272.492 328.5,276.5C 335.658,280.462 343.158,283.796 351,286.5C 356.456,282.046 361.623,277.213 366.5,272C 369.772,270.392 372.772,268.392 375.5,266C 380.568,266.419 382.735,269.252 382,274.5C 380.413,277.756 377.913,279.923 374.5,281C 363.877,293.984 350.543,298.317 334.5,294C 330.583,289.706 326.25,285.873 321.5,282.5C 320.902,281.205 320.402,279.872 320,278.5C 315.507,281.993 311.341,285.827 307.5,290C 303.5,291.333 299.5,292.667 295.5,294C 293.777,294.523 292.444,295.523 291.5,297C 290.677,299.627 290.01,302.294 289.5,305C 288.929,312.887 289.596,320.721 291.5,328.5C 296.613,329.388 301.28,331.388 305.5,334.5C 307.2,331.882 309.366,331.216 312,332.5C 315.847,329.981 320.014,328.815 324.5,329C 325.43,330.194 326.097,331.527 326.5,333C 322.201,336.969 318.201,341.302 314.5,346C 306.566,349.427 298.899,353.427 291.5,358C 281.706,362.087 271.706,365.42 261.5,368C 258.131,370.684 254.464,372.851 250.5,374.5C 246.179,372 242.012,369.333 238,366.5C 235.409,362.56 233.909,358.227 233.5,353.5C 231.473,353.662 229.473,353.495 227.5,353C 220.16,349.655 212.827,346.321 205.5,343C 201.701,340.692 200.701,337.525 202.5,333.5C 207.403,332.165 211.403,333.665 214.5,338C 218.961,340.807 223.628,343.14 228.5,345C 232.029,345.622 235.529,345.455 239,344.5C 246.292,345.891 253.459,347.391 260.5,349C 274.314,337.898 279.647,323.565 276.5,306C 276.741,304.016 277.408,302.183 278.5,300.5C 277.754,299.264 277.421,297.93 277.5,296.5C 267.214,296.797 258.381,293.463 251,286.5C 248.169,280.472 250.003,277.972 256.5,279C 262.523,285.339 269.856,287.673 278.5,286C 280.754,282.528 283.754,281.361 287.5,282.5C 289.361,281.472 290.695,279.972 291.5,278C 294.246,276.071 296.913,276.238 299.5,278.5C 302.207,276.157 304.874,273.823 307.5,271.5C 308.925,267.622 309.925,263.622 310.5,259.5C 311.189,257.647 312.522,256.481 314.5,256C 312.221,249.108 308.887,242.775 304.5,237C 296.916,236.245 289.249,234.745 281.5,232.5C 276.693,233.89 273.693,232.056 272.5,227C 273,224.5 273.5,222 274,219.5C 276.511,217.437 279.344,215.937 282.5,215C 288.167,214.667 293.833,214.333 299.5,214C 305.797,209.512 312.464,205.512 319.5,202C 327.225,198.998 334.892,196.165 342.5,193.5 Z M 351.5,207.5 C 350.624,207.369 349.957,207.702 349.5,208.5C 350.694,209.67 351.361,209.337 351.5,207.5 Z"/></g>
        <g><path style="opacity:0.842" d="M 157.5,248.5 C 162.051,247.554 164.384,249.387 164.5,254C 166.725,254.561 168.725,255.561 170.5,257C 178.321,265.057 187.821,269.89 199,271.5C 206.067,270.477 212.9,268.643 219.5,266C 223.188,261.314 227.188,256.981 231.5,253C 235.229,251.728 236.896,253.061 236.5,257C 236.174,259.663 235.341,262.163 234,264.5C 230.527,267.257 227.027,269.924 223.5,272.5C 216.015,274.94 208.515,277.273 201,279.5C 193.2,278.341 185.7,276.174 178.5,273C 174.016,268.922 169.016,265.589 163.5,263C 158.331,259.494 156.331,254.661 157.5,248.5 Z"/></g>
    </g>
</svg>
