<?xml version="1.0" encoding="UTF-8"?>
<!DOCTYPE svg PUBLIC "-//W3C//DTD SVG 1.1//EN" "http://www.w3.org/Graphics/SVG/1.1/DTD/svg11.dtd">
<svg class = "primarycolour" xmlns="http://www.w3.org/2000/svg" fill="#e52421" version="1.1" width="2000px" height="1080px" style="shape-rendering:geometricPrecision; text-rendering:geometricPrecision; image-rendering:optimizeQuality; fill-rule:evenodd; clip-rule:evenodd" xmlns:xlink="http://www.w3.org/1999/xlink">
<g id = "primarycolour">
<g><path style="opacity:0.989"  d="M 1465.5,-0.5 C 1470.17,-0.5 1474.83,-0.5 1479.5,-0.5C 1480.52,4.24281 1481.85,8.90948 1483.5,13.5C 1510.16,14.6665 1536.83,14.8332 1563.5,14C 1570.72,11.5777 1578.05,11.0777 1585.5,12.5C 1590.69,11.9227 1595.85,11.256 1601,10.5C 1603.12,11.473 1604.95,12.8064 1606.5,14.5C 1596.47,44.7392 1586.97,75.0725 1578,105.5C 1577.67,109.167 1577.33,112.833 1577,116.5C 1569.95,140.409 1564.95,164.742 1562,189.5C 1560.69,194.421 1559.19,199.255 1557.5,204C 1558.68,206.301 1560.01,206.634 1561.5,205C 1574.04,204.273 1586.54,203.107 1599,201.5C 1604.52,202.667 1610.02,202.5 1615.5,201C 1620.83,199 1626.17,197 1631.5,195C 1653.27,193.038 1674.94,190.205 1696.5,186.5C 1702.81,187.54 1709.14,187.707 1715.5,187C 1721.66,184.779 1728,183.279 1734.5,182.5C 1735.46,186.796 1735.63,191.129 1735,195.5C 1726.15,228.794 1718.99,262.294 1713.5,296C 1705.27,296.954 1697.27,295.954 1689.5,293C 1667.5,292.333 1645.5,292.333 1623.5,293C 1612.09,294.881 1600.75,295.547 1589.5,295C 1576.42,298.631 1563.09,300.297 1549.5,300C 1547.75,300.471 1546.09,301.138 1544.5,302C 1554.64,311.136 1564.47,320.636 1574,330.5C 1586.2,343.033 1598.03,355.866 1609.5,369C 1636.96,390.788 1664.12,412.955 1691,435.5C 1701,448.833 1711,462.167 1721,475.5C 1724.37,480.238 1724.2,484.738 1720.5,489C 1704.17,489.333 1687.83,489.667 1671.5,490C 1659.77,492.413 1647.94,493.913 1636,494.5C 1632.17,494.333 1628.33,494.167 1624.5,494C 1618.88,492.46 1613.21,491.126 1607.5,490C 1587.16,489.833 1566.83,489.333 1546.5,488.5C 1543.01,478.511 1538.84,468.845 1534,459.5C 1531.67,457.167 1529.33,454.833 1527,452.5C 1521.77,440.941 1516.11,429.608 1510,418.5C 1508.86,415.904 1508.03,413.237 1507.5,410.5C 1504.41,410.626 1502.57,412.293 1502,415.5C 1493.58,438.436 1488.41,462.102 1486.5,486.5C 1464.35,495.363 1441.35,498.863 1417.5,497C 1407.18,495.946 1396.85,495.113 1386.5,494.5C 1375.85,495.396 1365.18,496.229 1354.5,497C 1348.4,498.287 1342.4,499.953 1336.5,502C 1324.17,502.667 1311.83,502.667 1299.5,502C 1297.83,501.167 1296.17,500.333 1294.5,499.5C 1292.97,490.305 1293.8,481.305 1297,472.5C 1319.8,414.42 1340.8,355.753 1360,296.5C 1364.39,276.958 1369.72,257.625 1376,238.5C 1388.52,201.137 1401.86,164.137 1416,127.5C 1416.5,125.527 1416.66,123.527 1416.5,121.5C 1405.49,121.333 1394.49,121.5 1383.5,122C 1364.96,125.483 1346.29,127.817 1327.5,129C 1325.7,128.028 1324.03,126.861 1322.5,125.5C 1321.34,118.858 1321.17,112.192 1322,105.5C 1323.54,103.523 1324.04,101.523 1323.5,99.5C 1326.07,81.2559 1327.9,62.9226 1329,44.5C 1329.8,38.5147 1330.47,32.5147 1331,26.5C 1331.37,25.5838 1331.87,24.7504 1332.5,24C 1331.38,20.5915 1331.21,17.0915 1332,13.5C 1333.66,11.8421 1334.5,9.84206 1334.5,7.5C 1340.57,7.5101 1346.57,8.17676 1352.5,9.5C 1383.73,5.76485 1415.06,3.09818 1446.5,1.5C 1453.16,2.88451 1459.49,2.21784 1465.5,-0.5 Z M 1441.5,8.5 C 1451.06,9.58952 1460.56,9.58952 1470,8.5C 1471.6,11.6478 1472.6,14.9811 1473,18.5C 1473.33,24.5 1473.67,30.5 1474,36.5C 1475.08,37.6651 1475.92,38.9984 1476.5,40.5C 1475.57,42.7954 1474.73,45.1287 1474,47.5C 1473.5,66.1637 1473.33,84.8304 1473.5,103.5C 1448.06,108.644 1422.39,111.811 1396.5,113C 1393.51,112.67 1390.68,111.836 1388,110.5C 1382.33,112.634 1376.5,114.134 1370.5,115C 1357.44,116.507 1344.44,118.34 1331.5,120.5C 1330.34,115.198 1330.17,109.864 1331,104.5C 1332.75,101.754 1333.75,98.7536 1334,95.5C 1336.29,69.8346 1338.62,44.1679 1341,18.5C 1343.59,16.1627 1346.43,15.996 1349.5,18C 1360.4,18.7541 1371.07,17.4208 1381.5,14C 1396.11,12.2245 1410.78,11.2245 1425.5,11C 1430.97,10.1329 1436.31,9.29959 1441.5,8.5 Z M 1518.5,20.5 C 1544.84,20.3334 1571.17,20.5 1597.5,21C 1592.45,35.765 1587.12,50.4317 1581.5,65C 1579.14,76.7128 1575.97,88.5462 1572,100.5C 1565.26,136.354 1557.59,172.02 1549,207.5C 1547.08,208.542 1545.25,209.708 1543.5,211C 1530.05,212.04 1516.72,213.873 1503.5,216.5C 1500.55,216.349 1497.71,215.683 1495,214.5C 1493.39,215.101 1492.06,216.101 1491,217.5C 1487.14,227.423 1483.47,237.423 1480,247.5C 1472.12,263.261 1464.79,279.261 1458,295.5C 1456.76,299.06 1456.26,302.727 1456.5,306.5C 1470.53,305.362 1484.53,303.696 1498.5,301.5C 1507.5,302.084 1516.5,302.75 1525.5,303.5C 1518.72,341.551 1508.22,378.551 1494,414.5C 1487.44,436.89 1482.27,459.556 1478.5,482.5C 1473.86,483.395 1469.19,484.228 1464.5,485C 1448.41,485.067 1432.41,486.234 1416.5,488.5C 1404.66,487.178 1392.83,487.178 1381,488.5C 1377.75,487.207 1374.42,486.207 1371,485.5C 1367.06,486.651 1363.06,487.651 1359,488.5C 1350.02,488.572 1341.02,488.238 1332,487.5C 1328.41,487.624 1325.08,488.624 1322,490.5C 1319.24,489.692 1316.57,488.692 1314,487.5C 1310.15,490.264 1305.98,490.931 1301.5,489.5C 1300.83,488.167 1300.17,486.833 1299.5,485.5C 1305.79,464.258 1314.29,443.925 1325,424.5C 1327.24,415.83 1330.24,407.496 1334,399.5C 1334.74,397.559 1334.58,395.726 1333.5,394C 1334.5,393 1335.5,392 1336.5,391C 1336.17,390.667 1335.83,390.333 1335.5,390C 1336.43,389.612 1337.09,388.945 1337.5,388C 1341.97,374.368 1346.8,360.868 1352,347.5C 1361.88,313.093 1371.88,278.76 1382,244.5C 1393.46,209.202 1405.96,175.202 1419.5,142.5C 1421.42,135.311 1423.42,128.144 1425.5,121C 1425.91,120.055 1426.57,119.388 1427.5,119C 1445.33,116.764 1462.99,113.931 1480.5,110.5C 1480.72,102.898 1480.39,95.2317 1479.5,87.5C 1479.84,81.6304 1480.51,75.797 1481.5,70C 1479.46,62.532 1479.63,55.032 1482,47.5C 1482.5,39.5069 1482.67,31.5069 1482.5,23.5C 1494.67,22.7733 1506.67,21.7733 1518.5,20.5 Z M 1721.5,193.5 C 1723.2,193.34 1724.87,193.506 1726.5,194C 1721.42,215.404 1716.58,236.904 1712,258.5C 1710.85,265.476 1709.85,272.476 1709,279.5C 1708.36,281.762 1707.52,283.929 1706.5,286C 1698.38,286.848 1690.38,286.182 1682.5,284C 1651.45,283.074 1620.45,283.908 1589.5,286.5C 1578.77,288.007 1568.1,289.673 1557.5,291.5C 1551.35,289.764 1545.52,290.431 1540,293.5C 1536.69,291.363 1533.19,291.196 1529.5,293C 1512.83,293.333 1496.17,293.667 1479.5,294C 1476.03,296.072 1472.36,297.572 1468.5,298.5C 1468.34,295.813 1468.5,293.146 1469,290.5C 1477.45,272.944 1484.78,254.944 1491,236.5C 1492.56,233.217 1494.73,230.383 1497.5,228C 1514.28,223.711 1531.28,220.711 1548.5,219C 1552.72,217.056 1557.06,215.389 1561.5,214C 1579.85,212.865 1598.18,211.532 1616.5,210C 1621.38,208.928 1626.05,207.261 1630.5,205C 1642.84,203.415 1655.18,201.749 1667.5,200C 1670.89,199.202 1674.23,198.202 1677.5,197C 1687.5,196.667 1697.5,196.333 1707.5,196C 1712.39,195.646 1717.06,194.813 1721.5,193.5 Z M 1534.5,306.5 C 1537.81,306.909 1540.81,308.076 1543.5,310C 1558.33,326.167 1573.83,341.667 1590,356.5C 1595.83,367.667 1604.33,376.167 1615.5,382C 1623.05,391.226 1632.05,398.56 1642.5,404C 1653.05,414.605 1664.38,424.271 1676.5,433C 1686.25,442.695 1695.42,452.861 1704,463.5C 1707.5,469 1711,474.5 1714.5,480C 1712.25,481.039 1710.09,482.206 1708,483.5C 1707.1,482.299 1705.93,481.465 1704.5,481C 1692.94,480.911 1681.44,480.078 1670,478.5C 1659.21,482.613 1648.04,484.113 1636.5,483C 1632.34,480.916 1628.01,479.416 1623.5,478.5C 1604.34,481.128 1585.17,481.128 1566,478.5C 1561.41,478.783 1556.91,479.283 1552.5,480C 1550.64,478.442 1549.14,476.609 1548,474.5C 1546.39,469.012 1544.39,463.678 1542,458.5C 1538.67,454.5 1535.33,450.5 1532,446.5C 1526.93,434.441 1520.6,423.107 1513,412.5C 1511.35,408.71 1509.85,404.877 1508.5,401C 1518.03,369.722 1526.69,338.222 1534.5,306.5 Z"/></g>
<g><path style="opacity:0.994"  d="M 791.5,4.5 C 815.859,5.58424 840.192,6.91758 864.5,8.5C 871.472,8.73855 878.306,8.07189 885,6.5C 889.3,7.38341 893.634,8.05008 898,8.5C 904.482,7.25476 910.982,6.08809 917.5,5C 934.497,4.50006 951.497,4.3334 968.5,4.5C 968.292,6.92006 968.626,9.2534 969.5,11.5C 963.419,19.9941 957.586,28.6607 952,37.5C 943.606,55.9543 934.94,74.2877 926,92.5C 921.167,99.3333 916.333,106.167 911.5,113C 912.5,114 913.5,115 914.5,116C 929.167,116.333 943.833,116.667 958.5,117C 961.068,118.127 962.402,120.127 962.5,123C 959.813,130.681 959.146,138.515 960.5,146.5C 958.638,162.833 957.138,179.166 956,195.5C 955.765,209.848 955.265,224.181 954.5,238.5C 955.332,246.152 955.999,253.818 956.5,261.5C 956.587,265.639 955.92,269.639 954.5,273.5C 957.935,277.792 958.435,282.459 956,287.5C 955.667,303.167 955.333,318.833 955,334.5C 953.151,342.387 952.151,350.387 952,358.5C 951.308,359.025 950.808,359.692 950.5,360.5C 951.382,368.195 950.882,375.861 949,383.5C 948.333,396.5 948.333,409.5 949,422.5C 950.54,432.659 952.707,442.659 955.5,452.5C 954.058,461.486 952.725,470.486 951.5,479.5C 951.721,483.614 952.221,487.614 953,491.5C 951.818,493.357 950.151,494.357 948,494.5C 941.857,493.772 935.691,493.272 929.5,493C 927.162,492.163 924.828,491.33 922.5,490.5C 914.37,492.975 906.036,493.975 897.5,493.5C 883.043,492.12 868.543,491.12 854,490.5C 831.189,491.829 808.355,492.662 785.5,493C 779.706,493.12 774.04,493.954 768.5,495.5C 766.082,494.543 763.916,493.209 762,491.5C 758.847,471.022 758.68,450.522 761.5,430C 759.745,417.737 760.245,405.57 763,393.5C 763.264,372.642 764.097,351.808 765.5,331C 764.076,320.21 763.576,309.377 764,298.5C 765.214,296.951 766.714,295.785 768.5,295C 782.856,294.261 797.19,293.261 811.5,292C 813.55,287.426 814.717,282.592 815,277.5C 815.59,248.725 817.59,220.058 821,191.5C 824.178,179.162 826.511,166.829 828,154.5C 829.394,148.238 831.394,142.238 834,136.5C 834.333,130.833 834.667,125.167 835,119.5C 835.867,117.316 836.701,115.149 837.5,113C 831.939,99.7123 825.439,86.8789 818,74.5C 811.25,53.3359 802.584,33.0026 792,13.5C 791.502,10.5184 791.335,7.51838 791.5,4.5 Z M 948.5,10.5 C 950.857,10.3367 953.19,10.5034 955.5,11C 956.357,11.6891 957.023,12.5224 957.5,13.5C 944.078,38.6761 930.912,64.0094 918,89.5C 913.394,97.0394 908.061,104.039 902,110.5C 900.729,113.484 899.562,116.484 898.5,119.5C 897.596,120.209 897.263,121.209 897.5,122.5C 907.167,122.5 916.833,122.5 926.5,122.5C 934.141,124.165 941.808,124.832 949.5,124.5C 951.088,125.01 952.255,126.01 953,127.5C 954.14,137.35 953.307,147.016 950.5,156.5C 952.722,162.775 950.555,166.442 944,167.5C 935.899,165.433 927.732,163.6 919.5,162C 908.833,161.022 905,165.856 908,176.5C 910.626,179.231 913.793,181.064 917.5,182C 927.898,182.203 938.232,183.036 948.5,184.5C 948.5,196.833 948.5,209.167 948.5,221.5C 938.5,221.5 928.5,221.5 918.5,221.5C 916.169,220.683 913.669,220.016 911,219.5C 908.257,220.075 906.757,221.742 906.5,224.5C 903.406,230.078 904.406,234.912 909.5,239C 920.478,238.531 931.478,237.864 942.5,237C 944.333,238.167 946.167,239.333 948,240.5C 948.832,248.853 948.665,257.187 947.5,265.5C 946.205,266.098 944.872,266.598 943.5,267C 932.391,267.534 921.391,266.867 910.5,265C 905.454,269.792 904.121,275.626 906.5,282.5C 907.992,284.166 909.825,285.166 912,285.5C 917.56,283.944 923.227,282.944 929,282.5C 935.825,283.544 942.659,283.544 949.5,282.5C 949.958,293.928 949.292,305.261 947.5,316.5C 935.782,316.812 924.116,316.479 912.5,315.5C 911.482,316.193 910.482,316.859 909.5,317.5C 908.167,317.5 906.833,317.5 905.5,317.5C 905.177,323.69 905.51,329.69 906.5,335.5C 907.191,337.022 908.358,338.022 910,338.5C 914.37,336.926 918.87,335.926 923.5,335.5C 931.162,336.611 938.829,337.611 946.5,338.5C 945.766,351.244 944.266,363.91 942,376.5C 939.978,377.786 937.811,378.786 935.5,379.5C 927.88,378.341 920.38,376.674 913,374.5C 910.601,374.613 908.768,375.613 907.5,377.5C 906.191,379.571 905.525,382.071 905.5,385C 905.503,387.69 905.836,390.19 906.5,392.5C 907.289,392.783 907.956,393.283 908.5,394C 918.833,394.333 929.167,394.667 939.5,395C 940.5,396 941.5,397 942.5,398C 941.681,407.089 941.181,416.256 941,425.5C 932.948,423.616 924.781,422.449 916.5,422C 910.267,423.889 906.601,427.889 905.5,434C 904.791,437.935 906.124,440.935 909.5,443C 921.409,443.178 933.242,443.678 945,444.5C 947.03,447.226 948.53,450.226 949.5,453.5C 948.897,455.872 947.897,458.039 946.5,460C 946.96,461.301 947.294,462.634 947.5,464C 946.044,470.778 945.044,477.612 944.5,484.5C 937.352,484.95 930.352,484.284 923.5,482.5C 915.103,484.063 906.603,484.73 898,484.5C 884.8,484.467 871.634,483.8 858.5,482.5C 853.59,482.011 849.09,483.011 845,485.5C 841.538,483.602 837.871,482.269 834,481.5C 830.836,482.332 827.669,483.166 824.5,484C 806.158,484.833 787.824,484.666 769.5,483.5C 768.902,482.205 768.402,480.872 768,479.5C 767.408,447.086 768.741,414.753 772,382.5C 772.333,366.5 772.667,350.5 773,334.5C 773.869,332.419 774.369,330.253 774.5,328C 773.057,321.249 772.224,314.416 772,307.5C 770.176,306.251 770.343,305.085 772.5,304C 788.756,302.369 805.09,301.036 821.5,300C 823.861,299.803 825.528,298.636 826.5,296.5C 824.874,295.01 823.208,293.51 821.5,292C 823.325,255.799 826.158,219.632 830,183.5C 834.266,172.915 836.933,161.915 838,150.5C 840.951,144.201 842.284,137.534 842,130.5C 843.248,125.677 844.414,120.844 845.5,116C 842.59,104.181 838.256,94.0145 832.5,85.5C 824.172,67.844 816.672,49.844 810,31.5C 807.668,25.4937 804.334,20.1603 800,15.5C 799.333,14.5 799.333,13.5 800,12.5C 806.836,11.9857 813.669,12.6524 820.5,14.5C 822.311,13.2606 824.311,12.5939 826.5,12.5C 839.839,15.293 853.339,16.9597 867,17.5C 889.444,16.2792 911.944,14.6125 934.5,12.5C 938.846,12.6657 943.179,12.499 947.5,12C 948.056,11.6174 948.389,11.1174 948.5,10.5 Z"/></g>
<g><path style="opacity:0.991"  d="M 1047.5,423.5 C 1047.03,422.094 1046.03,421.427 1044.5,421.5C 1024.12,401.459 1006.78,379.126 992.5,354.5C 992.598,352.447 991.931,350.78 990.5,349.5C 986.066,339.722 981.899,329.722 978,319.5C 974.518,304.734 970.851,290.067 967,275.5C 962.059,226.368 971.225,179.701 994.5,135.5C 1007.58,114.418 1023.24,95.4178 1041.5,78.5C 1043.03,78.573 1044.03,77.9063 1044.5,76.5C 1059.3,63.5671 1075.63,52.7338 1093.5,44C 1107.72,38.3886 1122.06,33.0553 1136.5,28C 1154.09,23.8198 1171.93,21.9865 1190,22.5C 1208.62,22.4459 1227.12,23.6126 1245.5,26C 1249.39,25.2606 1253.05,23.9272 1256.5,22C 1261.56,17.9429 1266.89,14.2762 1272.5,11C 1275.73,9.80108 1279.06,9.30108 1282.5,9.5C 1280.91,28.9264 1277.08,47.9264 1271,66.5C 1269.95,74.8242 1268.95,83.1576 1268,91.5C 1261.06,113.384 1256.22,135.717 1253.5,158.5C 1262.13,159.049 1270.46,160.882 1278.5,164C 1303.93,182.339 1321.43,206.505 1331,236.5C 1331.29,245.779 1332.79,254.779 1335.5,263.5C 1332.27,290.286 1321.77,313.62 1304,333.5C 1297.21,338.625 1290.71,344.125 1284.5,350C 1286.32,351.8 1287.48,353.966 1288,356.5C 1290.29,366.768 1292.12,377.101 1293.5,387.5C 1283.36,390.712 1273.03,393.212 1262.5,395C 1257.03,396.231 1252.36,398.731 1248.5,402.5C 1253.04,421.469 1259.38,439.802 1267.5,457.5C 1266.15,460.013 1264.15,461.847 1261.5,463C 1241.29,469.077 1220.62,472.077 1199.5,472C 1193.17,475.333 1186.83,475.333 1180.5,472C 1174.17,471.667 1167.83,471.333 1161.5,471C 1152.59,468.855 1143.59,467.189 1134.5,466C 1120.7,461.125 1106.7,456.458 1092.5,452C 1081.34,445.919 1070.34,439.586 1059.5,433C 1055.03,430.35 1051.03,427.183 1047.5,423.5 Z M 1047.5,411.5 C 1046.5,409.833 1045.17,408.5 1043.5,407.5C 1039.17,403.5 1034.83,399.5 1030.5,395.5C 1029.92,393.251 1028.59,391.585 1026.5,390.5C 1006.5,367.321 992.331,340.321 984,309.5C 981.68,297.042 978.847,284.708 975.5,272.5C 976.077,270.894 976.41,269.228 976.5,267.5C 975.11,260.552 974.11,253.552 973.5,246.5C 975.697,234.274 976.863,221.94 977,209.5C 983.064,182.633 991.731,157.633 1003,134.5C 1013.45,120.38 1024.29,106.547 1035.5,93C 1038.66,89.9177 1042.33,87.5843 1046.5,86C 1050.17,81 1054.5,76.6667 1059.5,73C 1079.33,58.5857 1100.99,47.5857 1124.5,40C 1147.1,33.5667 1170.1,29.7333 1193.5,28.5C 1199.5,29.8333 1205.5,31.1667 1211.5,32.5C 1217.11,30.8275 1222.44,31.3275 1227.5,34C 1243.73,37.2359 1257.9,33.4026 1270,22.5C 1268.26,31.4357 1267.26,40.769 1267,50.5C 1265.67,53.8333 1264.33,57.1667 1263,60.5C 1261.15,73.4412 1258.15,86.1078 1254,98.5C 1252.31,104.814 1251.81,111.147 1252.5,117.5C 1251.27,124.085 1249.27,130.418 1246.5,136.5C 1245.51,140.165 1245.34,143.832 1246,147.5C 1244.98,148.687 1243.81,149.687 1242.5,150.5C 1241,149.248 1239.33,148.248 1237.5,147.5C 1236.09,148.806 1234.42,149.64 1232.5,150C 1213.89,151.808 1197.56,158.808 1183.5,171C 1176.89,173.305 1170.89,176.638 1165.5,181C 1157.26,188.567 1149.76,196.733 1143,205.5C 1140.25,214.095 1136.91,222.428 1133,230.5C 1131.5,237.707 1130,244.873 1128.5,252C 1130.79,258.935 1131.96,266.102 1132,273.5C 1136.11,305.183 1151.61,330.017 1178.5,348C 1193.15,356.554 1208.81,361.22 1225.5,362C 1227.67,364.167 1229.83,366.333 1232,368.5C 1235.37,386.639 1239.37,404.639 1244,422.5C 1246.89,431.04 1250.22,439.373 1254,447.5C 1255.62,453.248 1253.45,456.414 1247.5,457C 1226.18,462.512 1204.52,465.012 1182.5,464.5C 1176.3,463.741 1170.13,462.741 1164,461.5C 1120.08,456.802 1081.25,440.135 1047.5,411.5 Z M 1311.5,309.5 C 1310.09,309.973 1309.43,310.973 1309.5,312.5C 1308.09,312.973 1307.43,313.973 1307.5,315.5C 1306.09,315.973 1305.43,316.973 1305.5,318.5C 1303.94,319.945 1302.6,321.611 1301.5,323.5C 1299.17,325.167 1297.17,327.167 1295.5,329.5C 1285.47,337.658 1274.47,344.492 1262.5,350C 1253.1,351.183 1243.77,352.683 1234.5,354.5C 1191.25,353.101 1161.08,332.435 1144,292.5C 1139.45,281.951 1137.61,270.951 1138.5,259.5C 1137.35,248.062 1139.35,237.229 1144.5,227C 1143.54,224.88 1143.37,222.713 1144,220.5C 1151.82,210.855 1159.16,200.855 1166,190.5C 1179.92,182.125 1193.75,173.625 1207.5,165C 1216.25,160.147 1225.58,157.813 1235.5,158C 1237.5,161 1239.5,164 1241.5,167C 1284.72,173.888 1311.72,198.555 1322.5,241C 1321.66,250.321 1322.66,259.487 1325.5,268.5C 1322.47,277.676 1319.97,287.01 1318,296.5C 1315.81,300.886 1313.64,305.22 1311.5,309.5 Z"/></g>
<g><path style="opacity:0.108"  d="M 948.5,10.5 C 948.389,11.1174 948.056,11.6174 947.5,12C 943.179,12.499 938.846,12.6657 934.5,12.5C 939.029,11.7265 943.695,11.0599 948.5,10.5 Z"/></g>
<g><path style="opacity:1"  d="M 1450.5,18.5 C 1456.98,19.8143 1460.48,23.8143 1461,30.5C 1462.25,38.4293 1459.75,44.9293 1453.5,50C 1449.5,50.6667 1445.5,50.6667 1441.5,50C 1439.35,46.8851 1436.85,44.0518 1434,41.5C 1433.33,37.5 1433.33,33.5 1434,29.5C 1438.66,24.2988 1444.16,20.6322 1450.5,18.5 Z"/></g>
<g><path style="opacity:0.992"  d="M 533.5,77.5 C 533.427,79.0269 534.094,80.0269 535.5,80.5C 545.817,96.4488 556.651,112.115 568,127.5C 569.393,131.286 571.059,134.952 573,138.5C 584.114,152.145 590.78,167.811 593,185.5C 594.031,180.901 594.531,176.235 594.5,171.5C 593.294,148.15 591.794,124.817 590,101.5C 589.913,81.0624 589.246,60.7291 588,40.5C 590.086,38.7505 592.419,37.4172 595,36.5C 610.134,37.643 625.301,37.8096 640.5,37C 665.143,35.1694 689.81,33.8361 714.5,33C 716.649,32.4212 718.815,31.9212 721,31.5C 725.576,32.9543 729.909,34.9543 734,37.5C 736.124,42.7053 735.79,47.7053 733,52.5C 732.156,64.405 732.656,76.2383 734.5,88C 733.001,95.2836 733.334,102.45 735.5,109.5C 734.768,112.197 733.934,114.864 733,117.5C 731.308,138.309 729.808,159.143 728.5,180C 728.833,182.167 729.167,184.333 729.5,186.5C 731.23,187.026 732.564,188.026 733.5,189.5C 732.967,197.555 731.967,205.555 730.5,213.5C 731.761,218.176 731.761,222.842 730.5,227.5C 732.375,232.501 733.375,237.668 733.5,243C 731.62,258.778 730.453,274.611 730,290.5C 729.202,293.893 728.202,297.226 727,300.5C 726.333,314.167 726.333,327.833 727,341.5C 728.901,345.575 728.401,349.408 725.5,353C 728.5,353.667 731.5,353.667 734.5,353C 738.458,350.766 741.958,347.933 745,344.5C 747.901,346.836 750.068,349.17 751.5,351.5C 751.291,352.086 750.957,352.586 750.5,353C 751.684,354.18 752.351,355.68 752.5,357.5C 751.204,360.633 750.204,363.799 749.5,367C 751.313,380.636 750.646,394.136 747.5,407.5C 750.815,417.58 753.815,427.747 756.5,438C 755.856,440.798 754.356,442.965 752,444.5C 743.749,439.738 736.249,434.071 729.5,427.5C 728.738,425.738 727.404,424.738 725.5,424.5C 717.642,421.38 709.642,418.547 701.5,416C 697.705,414.269 694.038,412.269 690.5,410C 689.5,409.333 688.5,409.333 687.5,410C 680.384,420.118 672.884,429.951 665,439.5C 648.421,473.066 621.254,491.066 583.5,493.5C 578.575,490.725 573.408,490.058 568,491.5C 531.57,482.77 507.904,460.437 497,424.5C 496,419.5 495,414.5 494,409.5C 492.83,394.145 491.33,378.812 489.5,363.5C 492.016,363.245 494.35,362.411 496.5,361C 502.491,360.501 508.491,360.334 514.5,360.5C 511.546,353.03 509.046,345.364 507,337.5C 501.24,326.308 495.24,315.308 489,304.5C 480.67,283.178 473.337,261.511 467,239.5C 458.235,222.209 451.235,204.209 446,185.5C 444.326,181.476 442.159,177.809 439.5,174.5C 439.217,173.711 438.717,173.044 438,172.5C 437.5,195.498 437.333,218.498 437.5,241.5C 436.869,255.824 436.369,270.158 436,284.5C 431.813,290.317 430.647,296.651 432.5,303.5C 433.48,339.136 433.814,374.803 433.5,410.5C 432.447,415.1 431.781,419.766 431.5,424.5C 432.661,431.175 432.827,437.842 432,444.5C 432.75,445.126 433.584,445.626 434.5,446C 438.167,446.333 441.833,446.667 445.5,447C 451.272,453.72 454.439,461.553 455,470.5C 455.667,476.167 455.667,481.833 455,487.5C 454.167,488.333 453.333,489.167 452.5,490C 449.667,490.167 446.833,490.333 444,490.5C 426.534,488.996 409.034,487.996 391.5,487.5C 391.5,473.167 391.5,458.833 391.5,444.5C 370.688,441.647 362.021,450.647 365.5,471.5C 365.398,478.889 363.732,485.889 360.5,492.5C 359.833,492.833 359.167,493.167 358.5,493.5C 352.552,491.68 346.552,490.18 340.5,489C 320.833,488.667 301.167,488.333 281.5,488C 271.543,486.027 261.543,485.527 251.5,486.5C 241.044,483.412 230.377,481.412 219.5,480.5C 213.708,482.373 207.708,483.706 201.5,484.5C 199.5,484.167 197.5,483.833 195.5,483.5C 193.465,480.476 191.465,477.476 189.5,474.5C 191.525,466.543 193.358,458.543 195,450.5C 196.626,443.749 199.46,437.583 203.5,432C 211.89,432.136 220.223,432.969 228.5,434.5C 229.297,429.849 229.464,425.182 229,420.5C 232.308,410.603 235.308,400.603 238,390.5C 241.167,384.667 245.667,380.167 251.5,377C 254.79,371.775 258.79,367.108 263.5,363C 271.041,358.73 278.707,354.73 286.5,351C 290.676,350.573 294.842,350.073 299,349.5C 304.292,350.727 309.459,352.393 314.5,354.5C 316.059,353.926 317.559,353.26 319,352.5C 319.667,339.167 319.667,325.833 319,312.5C 318.776,307.53 317.609,302.863 315.5,298.5C 314.914,298.709 314.414,299.043 314,299.5C 310.719,296.595 307.052,295.928 303,297.5C 298.772,295.946 294.606,295.28 290.5,295.5C 293.135,288.232 296.302,281.232 300,274.5C 302.758,260.71 305.258,246.876 307.5,233C 306.302,229.737 305.302,226.404 304.5,223C 305.537,212.183 305.537,201.35 304.5,190.5C 304.322,185.035 304.989,179.702 306.5,174.5C 303.899,170.774 304.233,167.274 307.5,164C 307.089,162.856 306.756,161.689 306.5,160.5C 310.582,140.925 314.082,121.258 317,101.5C 320.191,91.9128 324.525,82.9128 330,74.5C 340.779,63.7208 351.613,52.8874 362.5,42C 364.833,41.6667 367.167,41.3333 369.5,41C 378.079,33.1068 388.079,27.7734 399.5,25C 424.833,24.3333 450.167,24.3333 475.5,25C 483.433,25.5336 490.767,27.867 497.5,32C 507.124,40.9504 515.957,50.4504 524,60.5C 526.672,66.517 529.839,72.1837 533.5,77.5 Z M 472.5,32.5 C 472.5,38.1667 472.5,43.8333 472.5,49.5C 470.5,49.5 468.5,49.5 466.5,49.5C 463.145,49.368 460.811,50.7013 459.5,53.5C 460.226,57.5224 461.059,61.5224 462,65.5C 464.718,66.3468 467.384,67.3468 470,68.5C 470.667,77.8333 470.667,87.1667 470,96.5C 468.956,97.6226 468.29,98.9559 468,100.5C 467,99.8333 466,99.1667 465,98.5C 462.418,92.3064 459.918,86.1397 457.5,80C 452.863,79.1706 448.196,78.6706 443.5,78.5C 440.282,76.8161 437.615,77.4828 435.5,80.5C 435.222,86.516 437.222,92.016 441.5,97C 433.859,98.5684 426.192,99.5684 418.5,100C 419.297,96.2546 419.797,92.4213 420,88.5C 424.687,83.5944 424.521,78.7611 419.5,74C 415.833,73.3333 412.167,73.3333 408.5,74C 404.695,83.7475 400.695,93.4142 396.5,103C 388.173,103.5 379.84,103.666 371.5,103.5C 371.174,99.1161 371.508,94.7828 372.5,90.5C 383.596,86.9565 387.929,79.6232 385.5,68.5C 381.03,67.5139 376.363,67.1805 371.5,67.5C 371.5,61.1667 371.5,54.8333 371.5,48.5C 376.436,45.3579 381.436,42.1913 386.5,39C 391.172,36.1635 396.172,34.1635 401.5,33C 418.207,32.8799 434.874,32.0466 451.5,30.5C 458.483,31.4147 465.483,32.0813 472.5,32.5 Z M 354.5,95.5 C 357.167,95.5 359.833,95.5 362.5,95.5C 362.179,101.026 362.512,106.36 363.5,111.5C 365.637,112.787 367.97,113.621 370.5,114C 377.833,114.333 385.167,114.667 392.5,115C 387.616,122.592 384.283,130.759 382.5,139.5C 391.268,137.779 399.935,135.613 408.5,133C 410.215,132.223 411.215,130.89 411.5,129C 412.202,123.148 413.536,117.482 415.5,112C 424.892,108.479 434.559,107.646 444.5,109.5C 447.929,117.476 449.762,125.81 450,134.5C 451.167,136.833 452.333,139.167 453.5,141.5C 460.142,142.664 466.808,142.831 473.5,142C 475.124,140.883 476.124,139.383 476.5,137.5C 473.009,128.031 470.342,118.364 468.5,108.5C 471.579,108.74 474.579,108.407 477.5,107.5C 478.167,94.8333 478.833,82.1667 479.5,69.5C 485.213,69.2672 489.546,71.7672 492.5,77C 498.21,82.3008 504.21,82.8008 510.5,78.5C 511.163,76.5274 511.496,74.3608 511.5,72C 511.467,69.3897 510.8,67.223 509.5,65.5C 507.929,62.7687 505.595,60.9354 502.5,60C 496.128,58.4904 489.795,56.8237 483.5,55C 481.714,54.2155 480.214,53.0488 479,51.5C 478.17,45.4724 478.336,39.4724 479.5,33.5C 483.888,34.8469 488.221,36.3469 492.5,38C 500.392,45.5567 507.892,53.39 515,61.5C 518.333,67.5 521.667,73.5 525,79.5C 540.726,102.228 556.059,125.228 571,148.5C 579.821,163.297 584.821,179.297 586,196.5C 586.601,199.637 587.601,202.637 589,205.5C 589.168,215.542 589.835,225.542 591,235.5C 591.511,237.878 592.178,240.212 593,242.5C 595.303,244.835 597.803,244.835 600.5,242.5C 601.578,223.15 602.912,203.817 604.5,184.5C 603.83,173.971 602.83,163.471 601.5,153C 603.028,147.521 602.695,142.187 600.5,137C 601.231,130.386 602.564,123.886 604.5,117.5C 605.167,117.167 605.833,116.833 606.5,116.5C 616.13,117.974 625.797,118.974 635.5,119.5C 638.698,118.576 641.865,117.576 645,116.5C 646.928,116.933 648.761,117.6 650.5,118.5C 674.993,114.237 699.66,112.403 724.5,113C 725.167,113.667 725.833,114.333 726.5,115C 724.737,134.419 723.237,153.919 722,173.5C 720.068,189.193 717.901,204.86 715.5,220.5C 715.789,228.863 717.622,236.863 721,244.5C 722.011,245.337 723.178,245.67 724.5,245.5C 724.667,257.171 724.5,268.838 724,280.5C 723.07,288.353 721.404,296.02 719,303.5C 718.667,320.167 718.333,336.833 718,353.5C 716.048,355.894 713.548,357.394 710.5,358C 688.53,357.751 666.697,359.251 645,362.5C 638.815,362.231 632.648,361.731 626.5,361C 592.5,360.667 558.5,360.333 524.5,360C 519.314,351.453 515.48,342.286 513,332.5C 504.806,317.445 497.139,302.112 490,286.5C 487.922,275.599 484.255,265.265 479,255.5C 477,248.167 475,240.833 473,233.5C 469.667,227.5 466.333,221.5 463,215.5C 457.3,195.068 449.634,175.401 440,156.5C 436.905,155.605 433.738,155.605 430.5,156.5C 429.903,180.509 429.903,204.509 430.5,228.5C 429.666,242.844 428.666,257.177 427.5,271.5C 427.551,274.223 427.884,276.89 428.5,279.5C 414.218,281.938 399.885,283.938 385.5,285.5C 384.446,285.32 383.446,284.987 382.5,284.5C 377.049,286.905 371.549,286.905 366,284.5C 362.991,285.003 360.158,286.003 357.5,287.5C 355.465,285.987 353.131,285.321 350.5,285.5C 346.142,286.006 341.809,286.673 337.5,287.5C 334.812,287.519 332.312,286.852 330,285.5C 321.579,287.601 313.079,287.934 304.5,286.5C 307.387,274.607 309.887,262.607 312,250.5C 312.769,237.114 313.935,223.781 315.5,210.5C 314.287,203.553 313.62,196.553 313.5,189.5C 315.5,161.329 319,133.329 324,105.5C 328.383,94.3963 334.049,84.063 341,74.5C 347.667,67.1667 354.667,60.1667 362,53.5C 363.782,58.4091 364.782,63.4091 365,68.5C 357.694,71.2116 350.528,74.2116 343.5,77.5C 342.502,86.1411 342.169,94.8078 342.5,103.5C 345.075,104.279 347.408,104.113 349.5,103C 351.415,100.6 353.081,98.1004 354.5,95.5 Z M 720.5,45.5 C 720.989,46.9952 721.655,48.3285 722.5,49.5C 722.334,55.1764 722.501,60.8431 723,66.5C 725.79,78.3573 726.79,90.3573 726,102.5C 725.5,103 725,103.5 724.5,104C 711.167,104.333 697.833,104.667 684.5,105C 666.839,107.358 649.173,109.525 631.5,111.5C 622.213,110.137 612.879,108.971 603.5,108C 604.771,96.7246 604.771,85.3912 603.5,74C 604.5,66.333 605.5,58.6663 606.5,51C 606.456,49.2358 606.122,47.5691 605.5,46C 612.94,45.9111 620.273,45.0778 627.5,43.5C 638.093,46.3269 648.593,45.9936 659,42.5C 663.963,43.1288 668.963,43.4621 674,43.5C 685.512,43.0444 697.012,42.3777 708.5,41.5C 711.833,41.8333 715.167,42.1667 718.5,42.5C 719.193,43.5178 719.859,44.5178 720.5,45.5 Z M 382.5,292.5 C 396.397,293.016 410.23,293.683 424,294.5C 425.794,308.943 427.294,323.443 428.5,338C 427.218,374.266 425.718,410.433 424,446.5C 424.914,448.664 426.081,450.664 427.5,452.5C 432.316,454.155 437.316,454.988 442.5,455C 444,456.5 445.5,458 447,459.5C 447.5,466.492 447.666,473.492 447.5,480.5C 439.16,480.666 430.827,480.5 422.5,480C 420.863,479.399 419.197,478.899 417.5,478.5C 415.119,479.607 412.619,480.273 410,480.5C 406.172,479.669 402.339,478.836 398.5,478C 399.656,464.575 399.822,451.075 399,437.5C 397,434.833 394.333,433.5 391,433.5C 382.373,435.13 373.873,437.13 365.5,439.5C 364.081,441.336 362.914,443.336 362,445.5C 360.086,454.989 358.252,464.489 356.5,474C 359.068,479.033 357.568,481.866 352,482.5C 341.091,480.695 330.091,479.362 319,478.5C 310.575,480.195 302.075,480.695 293.5,480C 268.12,477.866 242.787,475.033 217.5,471.5C 212.141,472.522 206.808,473.522 201.5,474.5C 202.217,467.17 203.051,459.837 204,452.5C 205.975,448.368 208.142,444.368 210.5,440.5C 219.706,441.763 228.873,443.096 238,444.5C 236.813,426.971 239.146,409.971 245,393.5C 255.201,383.63 265.701,374.13 276.5,365C 289.063,358.273 301.73,357.939 314.5,364C 318.473,369.32 323.806,371.987 330.5,372C 336.833,375.667 341.833,380.667 345.5,387C 348.85,387.93 351.683,387.097 354,384.5C 355.375,361.308 354.208,338.308 350.5,315.5C 350.185,309.261 351.519,303.428 354.5,298C 364.086,296.757 373.42,294.923 382.5,292.5 Z M 327.5,298.5 C 332.64,297.512 337.974,297.179 343.5,297.5C 343.59,299.696 343.923,301.863 344.5,304C 343.644,306.88 342.644,309.713 341.5,312.5C 346.264,331.917 347.597,351.584 345.5,371.5C 341.086,367.874 336.253,364.874 331,362.5C 328.374,341.057 327.208,319.723 327.5,298.5 Z M 745.5,430.5 C 737.355,425.257 729.355,419.757 721.5,414C 701.5,405.333 681.5,396.667 661.5,388C 653.112,381.474 644.112,375.974 634.5,371.5C 642.833,370.833 651.167,370.167 659.5,369.5C 667.725,369.572 675.891,368.906 684,367.5C 692.812,369.464 701.312,368.631 709.5,365C 718.059,363.028 726.726,361.694 735.5,361C 742.334,354.866 745.001,356.866 743.5,367C 742.827,375.038 741.827,383.038 740.5,391C 741.768,398.159 741.768,405.326 740.5,412.5C 741.142,416.79 742.642,420.79 745,424.5C 745.495,426.473 745.662,428.473 745.5,430.5 Z M 571.5,368.5 C 588.268,369.374 604.935,370.874 621.5,373C 633.167,380 644.833,387 656.5,394C 661.72,396.305 667.053,398.305 672.5,400C 674.555,400.687 676.221,401.854 677.5,403.5C 673.142,417.223 665.975,429.223 656,439.5C 644.586,462.9 626.086,477.4 600.5,483C 595.677,484.709 590.843,485.209 586,484.5C 555.937,483.797 531.937,471.131 514,446.5C 506.919,434.851 502.919,422.184 502,408.5C 501.163,406.649 500.329,404.816 499.5,403C 499.923,401.491 501.09,399.991 503,398.5C 503.333,392.833 503.667,387.167 504,381.5C 505.182,377.812 506.348,374.145 507.5,370.5C 525.17,370.667 542.836,370.5 560.5,370C 564.356,369.823 568.023,369.323 571.5,368.5 Z"/></g>
<g><path style="opacity:0.212"  d="M 472.5,32.5 C 473.49,38.31 473.823,44.31 473.5,50.5C 470.941,50.8016 468.607,50.4682 466.5,49.5C 468.5,49.5 470.5,49.5 472.5,49.5C 472.5,43.8333 472.5,38.1667 472.5,32.5 Z"/></g>
<g><path style="opacity:0.022"  d="M 720.5,45.5 C 722.176,46.1834 722.843,47.5168 722.5,49.5C 721.655,48.3285 720.989,46.9952 720.5,45.5 Z"/></g>
<g><path style="opacity:0.322"  d="M 371.5,48.5 C 371.5,54.8333 371.5,61.1667 371.5,67.5C 376.363,67.1805 381.03,67.5139 385.5,68.5C 380.5,68.5 375.5,68.5 370.5,68.5C 370.176,61.6457 370.509,54.979 371.5,48.5 Z"/></g>
<g><path style="opacity:0.055"  d="M 509.5,65.5 C 510.8,67.223 511.467,69.3897 511.5,72C 511.496,74.3608 511.163,76.5274 510.5,78.5C 510.769,74.0685 510.436,69.7352 509.5,65.5 Z"/></g>
<g><path style="opacity:0.998"  d="M 1442.5,66.5 C 1459.87,66.8964 1464.7,74.8964 1457,90.5C 1453.98,94.1668 1450.31,96.8335 1446,98.5C 1440.36,96.5168 1435.36,93.5168 1431,89.5C 1428.5,78.4928 1432.34,70.8261 1442.5,66.5 Z"/></g>
<g><path style="opacity:0.161"  d="M 1044.5,76.5 C 1044.03,77.9063 1043.03,78.573 1041.5,78.5C 1041.97,77.0937 1042.97,76.427 1044.5,76.5 Z"/></g>
<g><path style="opacity:0.243"  d="M 533.5,77.5 C 534.906,77.9731 535.573,78.9731 535.5,80.5C 534.094,80.0269 533.427,79.0269 533.5,77.5 Z"/></g>
<g><path style="opacity:0.275"  d="M 443.5,78.5 C 440.549,78.2872 437.882,78.9539 435.5,80.5C 437.615,77.4828 440.282,76.8161 443.5,78.5 Z"/></g>
<g><path style="opacity:0.229"  d="M 354.5,95.5 C 357.287,94.5233 360.287,94.19 363.5,94.5C 363.5,100.167 363.5,105.833 363.5,111.5C 362.512,106.36 362.179,101.026 362.5,95.5C 359.833,95.5 357.167,95.5 354.5,95.5 Z"/></g>
<g><path style="opacity:0.289"  d="M 898.5,119.5 C 907.622,121.157 916.955,122.157 926.5,122.5C 916.833,122.5 907.167,122.5 897.5,122.5C 897.263,121.209 897.596,120.209 898.5,119.5 Z"/></g>
<g><path style="opacity:0.094"  d="M 439.5,174.5 C 438.833,196.833 438.167,219.167 437.5,241.5C 437.333,218.498 437.5,195.498 438,172.5C 438.717,173.044 439.217,173.711 439.5,174.5 Z"/></g>
<g><path style="opacity:0.625"  d="M 918.5,221.5 C 915.167,221.5 911.833,221.5 908.5,221.5C 908.715,223.179 908.048,224.179 906.5,224.5C 906.757,221.742 908.257,220.075 911,219.5C 913.669,220.016 916.169,220.683 918.5,221.5 Z"/></g>
<g><path style="opacity:0.989"  d="M 1522.5,264.5 C 1521.84,266.639 1520.84,268.639 1519.5,270.5C 1514.99,272.725 1510.33,274.225 1505.5,275C 1501.91,272.623 1498.41,270.123 1495,267.5C 1494.24,263.745 1494.41,260.078 1495.5,256.5C 1496.67,255.486 1497.34,254.153 1497.5,252.5C 1498.58,250.457 1500.25,249.124 1502.5,248.5C 1504.03,248.573 1505.03,247.906 1505.5,246.5C 1512.62,243 1518.78,244.333 1524,250.5C 1523.89,255.179 1523.39,259.846 1522.5,264.5 Z"/></g>
<g><path style="opacity:0.188"  d="M 1505.5,246.5 C 1505.03,247.906 1504.03,248.573 1502.5,248.5C 1502.97,247.094 1503.97,246.427 1505.5,246.5 Z"/></g>
<g><path style="opacity:0.129"  d="M 1497.5,252.5 C 1497.34,254.153 1496.67,255.486 1495.5,256.5C 1495.23,254.62 1495.9,253.287 1497.5,252.5 Z"/></g>
<g><path style="opacity:0.167"  d="M 1522.5,264.5 C 1522.5,266.5 1522.5,268.5 1522.5,270.5C 1521.5,270.5 1520.5,270.5 1519.5,270.5C 1520.84,268.639 1521.84,266.639 1522.5,264.5 Z"/></g>
<g><path style="opacity:0.016"  d="M 432.5,303.5 C 433.222,303.918 433.722,304.584 434,305.5C 434.831,340.669 434.664,375.669 433.5,410.5C 433.814,374.803 433.48,339.136 432.5,303.5 Z"/></g>
<g><path style="opacity:0.247"  d="M 1311.5,309.5 C 1311.57,311.027 1310.91,312.027 1309.5,312.5C 1309.43,310.973 1310.09,309.973 1311.5,309.5 Z"/></g>
<g><path style="opacity:0.227"  d="M 1309.5,312.5 C 1309.57,314.027 1308.91,315.027 1307.5,315.5C 1307.43,313.973 1308.09,312.973 1309.5,312.5 Z"/></g>
<g><path style="opacity:0.243"  d="M 1307.5,315.5 C 1307.57,317.027 1306.91,318.027 1305.5,318.5C 1305.43,316.973 1306.09,315.973 1307.5,315.5 Z"/></g>
<g><path style="opacity:0.084"  d="M 909.5,317.5 C 908.791,318.404 907.791,318.737 906.5,318.5C 906.5,324.167 906.5,329.833 906.5,335.5C 905.51,329.69 905.177,323.69 905.5,317.5C 906.833,317.5 908.167,317.5 909.5,317.5 Z"/></g>
<g><path style="opacity:0.157"  d="M 1301.5,323.5 C 1300.5,326.5 1298.5,328.5 1295.5,329.5C 1297.17,327.167 1299.17,325.167 1301.5,323.5 Z"/></g>
<g><path style="opacity:0.02"  d="M 990.5,349.5 C 991.931,350.78 992.598,352.447 992.5,354.5C 991.069,353.22 990.402,351.553 990.5,349.5 Z"/></g>
<g><path style="opacity:0.283"  d="M 659.5,369.5 C 651.167,370.167 642.833,370.833 634.5,371.5C 633.957,371.44 633.624,371.107 633.5,370.5C 642.141,369.502 650.808,369.169 659.5,369.5 Z"/></g>
<g><path style="opacity:0.082"  d="M 907.5,377.5 C 906.555,382.405 906.221,387.405 906.5,392.5C 905.836,390.19 905.503,387.69 905.5,385C 905.525,382.071 906.191,379.571 907.5,377.5 Z"/></g>
<g><path style="opacity:0.306"  d="M 1026.5,390.5 C 1028.59,391.585 1029.92,393.251 1030.5,395.5C 1028.41,394.415 1027.08,392.749 1026.5,390.5 Z"/></g>
<g><path style="opacity:0.114"  d="M 1043.5,407.5 C 1045.17,408.5 1046.5,409.833 1047.5,411.5C 1045.17,411.167 1043.83,409.833 1043.5,407.5 Z"/></g>
<g><path style="opacity:0.204"  d="M 1044.5,421.5 C 1046.03,421.427 1047.03,422.094 1047.5,423.5C 1045.97,423.573 1044.97,422.906 1044.5,421.5 Z"/></g>
<g><path style="opacity:0.188"  d="M 725.5,424.5 C 727.404,424.738 728.738,425.738 729.5,427.5C 727.596,427.262 726.262,426.262 725.5,424.5 Z"/></g>
<g><path style="opacity:0.992"  d="M 1928.5,646.5 C 1930.5,646.5 1932.5,646.5 1934.5,646.5C 1934.5,649.167 1934.5,651.833 1934.5,654.5C 1933.46,663.139 1933.29,671.806 1934,680.5C 1934.97,682.274 1935.8,684.107 1936.5,686C 1936.43,686.765 1936.1,687.265 1935.5,687.5C 1934.33,688.514 1933.66,689.847 1933.5,691.5C 1932.74,694.015 1931.24,696.015 1929,697.5C 1928.61,715.511 1927.94,733.511 1927,751.5C 1925.24,760.063 1923.07,768.397 1920.5,776.5C 1920.63,778.292 1920.3,779.958 1919.5,781.5C 1906.56,804.357 1891.4,825.69 1874,845.5C 1873.48,847.289 1873.81,848.956 1875,850.5C 1880.64,858.479 1887.81,864.645 1896.5,869C 1899.18,871.194 1900.68,874.027 1901,877.5C 1921.17,896.333 1941.33,915.167 1961.5,934C 1971.04,932.844 1980.71,932.177 1990.5,932C 1992.62,930.418 1994.79,930.251 1997,931.5C 1997,934.051 1997.84,936.051 1999.5,937.5C 1999.5,939.167 1999.5,940.833 1999.5,942.5C 1997.51,947.543 1995.68,952.877 1994,958.5C 1993.77,969.572 1992.77,980.572 1991,991.5C 1990.67,1009.83 1990.33,1028.17 1990,1046.5C 1989.93,1049.28 1988.77,1051.44 1986.5,1053C 1955.5,1053.33 1924.5,1053.67 1893.5,1054C 1892.67,1054.91 1891.67,1055.58 1890.5,1056C 1886.38,1056.14 1882.38,1056.81 1878.5,1058C 1855.84,1058.5 1833.17,1058.67 1810.5,1058.5C 1810.26,1055.39 1810.6,1052.39 1811.5,1049.5C 1812.48,1047.85 1813.81,1046.52 1815.5,1045.5C 1823.21,1012.2 1829.05,978.866 1833,945.5C 1819.02,929.017 1803.85,913.683 1787.5,899.5C 1779.83,903.333 1772.17,907.167 1764.5,911C 1754.17,911.333 1743.83,911.667 1733.5,912C 1729.7,912.814 1726.2,914.314 1723,916.5C 1720.57,949.115 1719.23,981.782 1719,1014.5C 1715.31,1029.93 1713.65,1045.6 1714,1061.5C 1712.29,1064.42 1710.46,1067.25 1708.5,1070C 1705.44,1070.15 1702.44,1069.65 1699.5,1068.5C 1692.9,1071.12 1686.23,1071.12 1679.5,1068.5C 1677.7,1068.58 1676.03,1069.08 1674.5,1070C 1659.19,1069.76 1644.02,1070.92 1629,1073.5C 1623.3,1071.87 1617.8,1072.37 1612.5,1075C 1600.5,1075.67 1588.5,1075.67 1576.5,1075C 1571.65,1074.29 1566.98,1072.95 1562.5,1071C 1547.83,1070.33 1533.17,1070.33 1518.5,1071C 1515.63,1073.7 1512.96,1076.54 1510.5,1079.5C 1509.5,1079.5 1508.5,1079.5 1507.5,1079.5C 1505.93,1077.1 1504.6,1074.6 1503.5,1072C 1504.75,1068 1506.41,1064.17 1508.5,1060.5C 1507.9,1059.21 1507.4,1057.87 1507,1056.5C 1506.33,1049.5 1506.33,1042.5 1507,1035.5C 1513.6,1004.96 1518.27,973.96 1521,942.5C 1522.62,928.73 1524.95,915.063 1528,901.5C 1529.51,883.157 1531.51,864.823 1534,846.5C 1536.11,844.623 1537.44,842.29 1538,839.5C 1539.83,825.563 1540.83,811.563 1541,797.5C 1541.86,795.913 1542.53,794.246 1543,792.5C 1543.01,784.142 1544.18,775.976 1546.5,768C 1546.13,764.837 1545.8,761.67 1545.5,758.5C 1547.83,742.26 1549,725.927 1549,709.5C 1549.87,708.892 1550.37,708.059 1550.5,707C 1548.17,701.333 1545.83,695.667 1543.5,690C 1544.7,686.724 1545.7,683.391 1546.5,680C 1545.89,676.379 1544.89,672.879 1543.5,669.5C 1546.43,638.811 1556.26,610.478 1573,584.5C 1597.53,554.308 1629.03,535.474 1667.5,528C 1685.04,524.68 1702.7,523.013 1720.5,523C 1745.3,523.821 1768.63,530.154 1790.5,542C 1798.83,547.091 1806.33,553.258 1813,560.5C 1823.23,576.062 1834.23,591.062 1846,605.5C 1846.33,612.5 1846.67,619.5 1847,626.5C 1851.17,630.667 1855.33,634.833 1859.5,639C 1865.01,642.255 1870.68,645.255 1876.5,648C 1893.88,648.869 1911.21,648.369 1928.5,646.5 Z M 1698.5,530.5 C 1723.55,529.338 1747.88,532.838 1771.5,541C 1779.89,545.861 1788.55,550.194 1797.5,554C 1808.95,569.784 1820.78,585.284 1833,600.5C 1836.86,608.343 1838.53,616.676 1838,625.5C 1847.63,643.763 1862.79,654.263 1883.5,657C 1898.19,657.105 1912.86,656.771 1927.5,656C 1924.89,665.004 1924.89,674.004 1927.5,683C 1922.87,685.742 1917.87,687.409 1912.5,688C 1810.31,688.17 1708.14,688.67 1606,689.5C 1601.84,688.974 1598.01,687.641 1594.5,685.5C 1582.87,689.362 1571.2,689.362 1559.5,685.5C 1557.22,686.223 1554.88,686.557 1552.5,686.5C 1551.17,668.803 1553,651.47 1558,634.5C 1563.76,613.303 1573.93,594.636 1588.5,578.5C 1611.15,556.035 1638.15,541.535 1669.5,535C 1676.12,533.892 1682.78,533.225 1689.5,533C 1692.68,532.34 1695.68,531.507 1698.5,530.5 Z M 1903.5,793.5 C 1902.09,793.973 1901.43,794.973 1901.5,796.5C 1896.36,804.101 1891.19,811.768 1886,819.5C 1879.34,825.162 1873,831.162 1867,837.5C 1865.59,840.661 1863.92,843.661 1862,846.5C 1849.36,858.146 1835.86,868.646 1821.5,878C 1815.29,881.273 1808.95,884.273 1802.5,887C 1786.57,891.231 1770.91,896.231 1755.5,902C 1751.17,902.667 1746.83,902.667 1742.5,902C 1735.9,900.912 1729.4,899.412 1723,897.5C 1716.75,898.531 1710.58,899.865 1704.5,901.5C 1707.15,906.479 1708.98,911.812 1710,917.5C 1709.28,943.165 1709.44,968.832 1710.5,994.5C 1709.07,1012.93 1706.9,1031.26 1704,1049.5C 1703.56,1052.38 1702.56,1055.04 1701,1057.5C 1694.64,1059.25 1688.14,1060.42 1681.5,1061C 1652.78,1062.33 1624.12,1064.16 1595.5,1066.5C 1589.83,1066.33 1584.17,1066.17 1578.5,1066C 1567.55,1064.08 1556.55,1062.58 1545.5,1061.5C 1536.5,1061.5 1527.5,1061.5 1518.5,1061.5C 1518.74,1060.21 1518.4,1059.21 1517.5,1058.5C 1517.77,1054.18 1517.11,1050.01 1515.5,1046C 1521.49,1025.99 1524.99,1005.49 1526,984.5C 1527.55,975.465 1529.21,966.465 1531,957.5C 1531.89,938.045 1533.55,918.711 1536,899.5C 1538.12,896.339 1538.62,893.006 1537.5,889.5C 1538.82,875.941 1541.32,862.608 1545,849.5C 1546.47,827.019 1548.3,804.686 1550.5,782.5C 1551.12,782.389 1551.62,782.056 1552,781.5C 1552.5,774.508 1552.67,767.508 1552.5,760.5C 1555.01,739.943 1556.85,719.276 1558,698.5C 1561.27,695.708 1564.6,695.375 1568,697.5C 1569.74,696.106 1571.74,695.439 1574,695.5C 1579.03,697.952 1584.03,697.952 1589,695.5C 1590.22,695.862 1591.39,696.362 1592.5,697C 1701.17,697.333 1809.83,697.667 1918.5,698C 1922.9,704.915 1923.4,712.082 1920,719.5C 1919.97,737.352 1917.81,754.852 1913.5,772C 1913.59,773.107 1913.92,774.107 1914.5,775C 1912.32,777.35 1909.98,779.517 1907.5,781.5C 1905.96,785.444 1904.63,789.444 1903.5,793.5 Z M 1752.5,727.5 C 1764.14,725.995 1774.81,728.495 1784.5,735C 1787.6,739.037 1789.77,743.537 1791,748.5C 1796.7,753.926 1798.7,760.592 1797,768.5C 1793.49,785.679 1783.32,796.846 1766.5,802C 1756.5,802.667 1746.5,802.667 1736.5,802C 1731.2,798.769 1725.7,795.935 1720,793.5C 1718.06,787.247 1715.9,781.08 1713.5,775C 1714.67,773.167 1715.83,771.333 1717,769.5C 1717.28,763.022 1718.28,756.689 1720,750.5C 1725.8,743.698 1731.97,737.198 1738.5,731C 1743.34,730.005 1748.01,728.838 1752.5,727.5 Z M 1864.5,854.5 C 1874.34,862.833 1884.34,870.999 1894.5,879C 1899,884.167 1903.5,889.333 1908,894.5C 1921.61,907.569 1935.11,920.736 1948.5,934C 1936.89,936.44 1925.22,938.607 1913.5,940.5C 1911.96,940.327 1910.46,939.994 1909,939.5C 1893.42,943.243 1877.58,945.077 1861.5,945C 1855.21,948.194 1848.88,948.194 1842.5,945C 1840.06,940.559 1837.22,936.393 1834,932.5C 1822.59,921.593 1811.76,910.26 1801.5,898.5C 1801.61,897.558 1801.94,896.725 1802.5,896C 1825.23,885.078 1845.9,871.244 1864.5,854.5 Z M 1964.5,941.5 C 1972.51,941.334 1980.51,941.5 1988.5,942C 1988.95,946.939 1988.28,951.939 1986.5,957C 1987.07,958.872 1987.73,960.705 1988.5,962.5C 1987.39,964.385 1986.56,966.385 1986,968.5C 1984.76,993.904 1983.26,1019.07 1981.5,1044C 1953.17,1044.33 1924.83,1044.67 1896.5,1045C 1892.05,1046.75 1887.55,1047.25 1883,1046.5C 1879.6,1047.3 1876.26,1048.3 1873,1049.5C 1869.84,1048.67 1866.67,1047.83 1863.5,1047C 1849.83,1046.67 1836.17,1046.33 1822.5,1046C 1830.06,1021.69 1835.22,996.86 1838,971.5C 1838.62,966.318 1840.46,961.651 1843.5,957.5C 1852.48,956.668 1861.48,956.168 1870.5,956C 1879.53,954.296 1888.53,952.296 1897.5,950C 1903.83,949.667 1910.17,949.333 1916.5,949C 1932.6,946.128 1948.6,943.628 1964.5,941.5 Z"/></g>
<g><path style="opacity:0.991"  d="M 343.5,1038.5 C 343.5,1040.83 343.5,1043.17 343.5,1045.5C 333.833,1045.5 324.167,1045.5 314.5,1045.5C 296.818,1044.7 279.318,1042.7 262,1039.5C 243.914,1039.85 226.08,1042.02 208.5,1046C 201.98,1046.69 195.48,1046.52 189,1045.5C 178.53,1046.83 168.03,1047.83 157.5,1048.5C 145.905,1047.79 134.239,1046.96 122.5,1046C 120.203,1044.74 119.37,1042.9 120,1040.5C 122.254,1036.99 124.254,1033.33 126,1029.5C 127.719,1021.96 130.052,1014.62 133,1007.5C 137.907,1003.63 143.074,1000.13 148.5,997C 157.031,987.098 162.198,975.598 164,962.5C 164.995,951.488 166.329,940.488 168,929.5C 169.115,883.46 168.448,837.46 166,791.5C 165.314,787.099 163.814,782.766 161.5,778.5C 161.598,776.447 160.931,774.78 159.5,773.5C 155.954,767.612 151.621,762.278 146.5,757.5C 145.415,755.413 143.749,754.08 141.5,753.5C 133.724,745.894 125.724,738.394 117.5,731C 114.785,729.092 111.785,727.759 108.5,727C 73.4442,726.467 38.4442,724.8 3.5,722C 2.25501,721.209 0.921673,720.709 -0.5,720.5C -0.5,718.833 -0.5,717.167 -0.5,715.5C 3.37346,705.34 6.04013,694.673 7.5,683.5C 6.06799,680.332 5.40132,676.999 5.5,673.5C 9.93027,639.956 12.0969,606.29 12,572.5C 10.4427,566.644 9.94272,560.811 10.5,555C 7.9364,552.724 8.26973,550.724 11.5,549C 17.3282,548.44 23.1616,547.94 29,547.5C 118.387,553.867 207.887,557.034 297.5,557C 323.912,558.008 350.246,560.008 376.5,563C 406.169,564.881 435.835,564.881 465.5,563C 471.06,557.528 474.393,558.361 475.5,565.5C 474.714,570.53 473.714,575.53 472.5,580.5C 473.095,584.302 473.428,588.136 473.5,592C 472.273,602.123 471.44,612.289 471,622.5C 469.459,624.477 468.959,626.477 469.5,628.5C 468.168,648.793 467.002,669.126 466,689.5C 465.358,691.762 464.525,693.929 463.5,696C 465.307,703.352 466.307,710.852 466.5,718.5C 465.787,728.705 464.787,738.872 463.5,749C 464.145,755.978 465.478,762.811 467.5,769.5C 465.181,770.167 462.847,770.334 460.5,770C 459.044,768.255 457.711,766.422 456.5,764.5C 448.187,763.668 439.853,763.168 431.5,763C 425.137,762.047 418.804,761.047 412.5,760C 400.576,758.101 389.243,759.768 378.5,765C 365.535,766.238 353.535,770.238 342.5,777C 335.333,784.167 328.167,791.333 321,798.5C 318.079,803.341 315.412,808.341 313,813.5C 308.946,827.418 305.113,841.084 301.5,854.5C 301.722,856.055 302.389,857.389 303.5,858.5C 301.863,863.384 300.696,868.384 300,873.5C 293.293,918.681 294.627,963.681 304,1008.5C 313.76,1014.63 323.26,1021.13 332.5,1028C 336.695,1031.03 340.361,1034.53 343.5,1038.5 Z M 365.5,686.5 C 366.043,686.44 366.376,686.107 366.5,685.5C 344.844,684.5 323.177,684.167 301.5,684.5C 289.925,682.567 278.258,682.067 266.5,683C 261.343,686.423 260.177,690.923 263,696.5C 271.606,708.711 277.772,722.044 281.5,736.5C 259.94,732.842 238.274,729.842 216.5,727.5C 214.813,727.76 213.313,728.427 212,729.5C 211.333,728.5 211.333,727.5 212,726.5C 221.995,714.141 232.662,702.474 244,691.5C 247.477,688.422 247.31,685.589 243.5,683C 216.371,680.267 189.371,676.601 162.5,672C 151.152,670.899 139.819,669.732 128.5,668.5C 126.865,669.046 125.199,669.38 123.5,669.5C 123.337,671.857 123.503,674.19 124,676.5C 124.816,677.823 125.983,678.489 127.5,678.5C 127.973,679.906 128.973,680.573 130.5,680.5C 133.165,683.335 135.665,686.335 138,689.5C 143.197,700.732 149.031,711.565 155.5,722C 130.935,720.796 106.269,720.13 81.5,720C 66.2277,719.268 51.061,717.768 36,715.5C 28.192,717.056 20.5253,716.722 13,714.5C 12.3333,710.5 12.3333,706.5 13,702.5C 13.9193,696.567 15.086,690.734 16.5,685C 15.8333,682.667 15.1667,680.333 14.5,678C 18.5244,669.022 19.1911,659.855 16.5,650.5C 17.9607,644.944 18.794,639.277 19,633.5C 19.6607,617.478 20.4941,601.478 21.5,585.5C 20.9112,582.978 20.2446,580.478 19.5,578C 20.2677,575.864 20.9344,573.697 21.5,571.5C 20.3375,567.672 19.3375,563.838 18.5,560C 27.6736,557.417 37.0069,555.917 46.5,555.5C 70.0979,557.454 93.7646,558.62 117.5,559C 131.23,559.749 144.897,561.082 158.5,563C 168.167,563.667 177.833,563.667 187.5,563C 190.397,561.228 193.397,561.228 196.5,563C 242.822,564.295 289.155,565.295 335.5,566C 344.194,567.444 352.86,568.777 361.5,570C 396.809,571.881 432.142,572.715 467.5,572.5C 463.417,604.332 460.584,636.332 459,668.5C 457.399,676.103 456.233,683.77 455.5,691.5C 456.936,700.116 457.936,708.782 458.5,717.5C 457.236,729.802 456.57,742.136 456.5,754.5C 448.194,755.538 439.861,755.705 431.5,755C 404.457,750.641 377.457,745.974 350.5,741C 344.279,739.98 338.279,740.48 332.5,742.5C 331.833,742.167 331.167,741.833 330.5,741.5C 341.765,723.398 353.432,705.065 365.5,686.5 Z M 210.5,717.5 C 207.5,718.5 205.5,720.5 204.5,723.5C 199.323,728.515 194.656,734.015 190.5,740C 192.022,741.522 193.522,743.022 195,744.5C 197.39,743.722 199.557,742.555 201.5,741C 211.339,740.606 221.172,740.106 231,739.5C 242.823,741.3 254.657,743.133 266.5,745C 274.197,745.57 281.864,745.236 289.5,744C 290.894,743.044 291.561,741.711 291.5,740C 286.399,723.799 279.399,708.465 270.5,694C 274.146,691.73 278.146,690.564 282.5,690.5C 292.927,692.727 303.427,693.394 314,692.5C 324.457,694.073 334.957,695.239 345.5,696C 346.833,696.667 348.167,697.333 349.5,698C 338.606,713.897 328.106,730.064 318,746.5C 316.516,750.549 317.849,752.549 322,752.5C 327.151,751.436 332.318,750.436 337.5,749.5C 350.608,750.585 363.608,752.419 376.5,755C 358.802,757.851 343.135,765.018 329.5,776.5C 324.271,784.235 318.104,791.235 311,797.5C 308.726,801.714 306.726,806.047 305,810.5C 301.307,824.606 297.307,838.606 293,852.5C 289.706,877.563 287.539,902.73 286.5,928C 287.868,938.113 288.701,948.279 289,958.5C 291.136,962.098 291.636,966.098 290.5,970.5C 291.166,984.829 293.666,998.829 298,1012.5C 300.537,1015.37 303.37,1017.87 306.5,1020C 315.669,1025.42 324.669,1031.08 333.5,1037C 329.137,1037.29 324.804,1037.79 320.5,1038.5C 300.831,1036.17 281.165,1033.5 261.5,1030.5C 241.889,1032.25 222.389,1034.91 203,1038.5C 196.473,1038.03 189.973,1037.36 183.5,1036.5C 181.432,1036.97 179.432,1037.63 177.5,1038.5C 167.275,1036.96 157.109,1037.29 147,1039.5C 141.983,1037.79 136.817,1037.12 131.5,1037.5C 132.14,1029.41 134.307,1021.75 138,1014.5C 141.197,1012.33 144.03,1009.83 146.5,1007C 151.38,1005.65 155.547,1003.15 159,999.5C 163.888,990.052 167.888,980.719 171,971.5C 172.591,963.545 173.924,955.545 175,947.5C 175.428,915.316 176.262,883.149 177.5,851C 178.024,829.407 176.857,807.907 174,786.5C 167.635,766.783 155.135,751.616 136.5,741C 133.6,738.603 131.267,735.77 129.5,732.5C 131.465,731.708 133.465,731.041 135.5,730.5C 145.777,731.747 155.61,734.414 165,738.5C 166.699,737.594 168.533,737.261 170.5,737.5C 170.665,734.482 170.498,731.482 170,728.5C 166.761,725.017 163.761,721.35 161,717.5C 154.167,705.167 147.333,692.833 140.5,680.5C 157.94,682.286 175.274,685.452 192.5,690C 205.236,690.058 217.903,690.725 230.5,692C 230.833,692.333 231.167,692.667 231.5,693C 228.098,694.4 225.264,696.567 223,699.5C 219.563,706.052 215.396,712.052 210.5,717.5 Z"/></g>
<g><path style="opacity:0.995"  d="M 1020.5,626.5 C 1020.43,628.027 1021.09,629.027 1022.5,629.5C 1027.3,638.139 1034.64,642.305 1044.5,642C 1076.66,647.161 1103.82,661.661 1126,685.5C 1153.54,714.58 1171.04,748.913 1178.5,788.5C 1178.07,792.044 1177.41,795.544 1176.5,799C 1182.8,836.506 1175.97,871.006 1156,902.5C 1146.37,914.461 1136.37,926.128 1126,937.5C 1117.45,947.716 1106.95,955.216 1094.5,960C 1085.64,963.132 1076.64,965.799 1067.5,968C 1064.07,971.042 1061.23,974.542 1059,978.5C 1054.85,988.143 1050.18,997.477 1045,1006.5C 1034.86,1017.16 1022.69,1024.66 1008.5,1029C 1002.31,1030.43 996.311,1032.43 990.5,1035C 982.064,1035.98 973.731,1037.48 965.5,1039.5C 958.444,1038.09 951.778,1039.26 945.5,1043C 936.234,1043.23 927.234,1044.9 918.5,1048C 911.167,1048.67 903.833,1048.67 896.5,1048C 893.13,1044.97 890.13,1041.63 887.5,1038C 884.878,1036.2 882.211,1036.2 879.5,1038C 870.833,1038.33 862.167,1038.67 853.5,1039C 845.287,1041.21 836.954,1041.88 828.5,1041C 826.791,1039.46 824.791,1038.62 822.5,1038.5C 816.973,1040.05 811.306,1040.88 805.5,1041C 798.094,1043.14 790.761,1045.47 783.5,1048C 781.833,1048.17 780.167,1048.33 778.5,1048.5C 776.359,1048.39 774.525,1047.72 773,1046.5C 769.233,1039.8 768.567,1032.8 771,1025.5C 777.777,996.944 783.777,968.277 789,939.5C 789.419,938.328 790.085,937.328 791,936.5C 789.904,925.77 792.237,915.77 798,906.5C 802.598,904.476 807.431,903.309 812.5,903C 836.587,903.068 860.587,901.735 884.5,899C 886.731,898.378 888.565,897.211 890,895.5C 890.016,888.193 890.849,881.026 892.5,874C 890.597,868.152 889.597,862.152 889.5,856C 890.463,808.508 890.796,761.008 890.5,713.5C 846.81,713.823 803.143,713.489 759.5,712.5C 754.281,713.269 749.114,714.269 744,715.5C 739.391,715.549 736.558,713.382 735.5,709C 736.892,698.427 736.392,687.927 734,677.5C 734.152,644.066 732.652,610.732 729.5,577.5C 729.5,573.5 729.5,569.5 729.5,565.5C 733.371,565.815 737.038,565.482 740.5,564.5C 742.783,563.971 745.117,563.637 747.5,563.5C 759.554,565.861 771.721,567.194 784,567.5C 808.465,565.494 832.965,564.66 857.5,565C 861.744,567.943 866.077,567.943 870.5,565C 877.833,564.667 885.167,564.333 892.5,564C 893.872,563.598 895.205,563.098 896.5,562.5C 901.204,563.695 905.704,565.362 910,567.5C 938.632,564.912 966.466,568.412 993.5,578C 1002.28,584.468 1008.45,592.968 1012,603.5C 1013.95,611.526 1016.79,619.193 1020.5,626.5 Z M 1143.5,901.5 C 1142.09,901.973 1141.43,902.973 1141.5,904.5C 1139.2,906.294 1137.04,908.294 1135,910.5C 1131.62,915.422 1128.12,920.255 1124.5,925C 1118.83,928 1113.17,931 1107.5,934C 1103.17,938.333 1098.83,942.667 1094.5,947C 1079.59,950.124 1066.25,956.457 1054.5,966C 1049.91,976.767 1044.74,987.267 1039,997.5C 1035.88,1002.95 1031.71,1007.45 1026.5,1011C 1005.56,1021.2 983.562,1027.54 960.5,1030C 947.59,1033.88 934.257,1035.55 920.5,1035C 915.363,1037.25 910.03,1037.91 904.5,1037C 903.667,1036.17 902.833,1035.33 902,1034.5C 901.667,931.833 901.333,829.167 901,726.5C 899.854,722.898 899.021,719.231 898.5,715.5C 899.094,711.388 900.094,707.388 901.5,703.5C 900.191,699.596 899.191,695.596 898.5,691.5C 899.315,654.183 899.815,616.849 900,579.5C 901.648,578.283 903.481,577.45 905.5,577C 910.489,576.39 915.489,575.89 920.5,575.5C 935.833,577 951.166,578.5 966.5,580C 975.171,582.338 983.504,585.671 991.5,590C 994.372,592.537 996.872,595.37 999,598.5C 1005,611.167 1011,623.833 1017,636.5C 1022.4,646.892 1030.9,653.058 1042.5,655C 1051.52,655.168 1060.52,655.668 1069.5,656.5C 1081.13,664.32 1092.8,672.154 1104.5,680C 1114.7,689.863 1124.53,700.029 1134,710.5C 1140.08,721 1146.42,731.334 1153,741.5C 1158.2,752.887 1162.53,764.554 1166,776.5C 1166.61,798.191 1167.28,819.858 1168,841.5C 1164.49,854.371 1160.16,867.705 1155,881.5C 1151.91,888.684 1148.08,895.351 1143.5,901.5 Z M 738.5,585.5 C 743.985,584.348 749.651,584.182 755.5,585C 760.427,586.785 765.427,588.119 770.5,589C 798.845,588.762 827.179,587.928 855.5,586.5C 854.979,607.67 856.479,628.67 860,649.5C 860.667,666.833 860.667,684.167 860,701.5C 858.509,703.004 856.676,703.837 854.5,704C 818.837,703.903 783.171,703.57 747.5,703C 744.504,697.006 743.837,690.673 745.5,684C 743.126,674.672 741.96,665.172 742,655.5C 740.924,653.933 740.091,652.266 739.5,650.5C 740.644,629.858 740.811,609.191 740,588.5C 739.768,587.263 739.268,586.263 738.5,585.5 Z M 885.5,594.5 C 886.048,596.394 887.048,598.06 888.5,599.5C 887.181,604.957 887.681,610.29 890,615.5C 890.667,643.167 890.667,670.833 890,698.5C 886.025,702.527 881.191,704.527 875.5,704.5C 874.791,703.596 873.791,703.263 872.5,703.5C 872.826,695.316 872.492,687.316 871.5,679.5C 870.67,672.188 870.003,664.854 869.5,657.5C 871.061,641.057 870.394,624.724 867.5,608.5C 867.5,603.833 867.5,599.167 867.5,594.5C 873.5,594.5 879.5,594.5 885.5,594.5 Z M 1020.5,763.5 C 1031.84,763.333 1043.17,763.5 1054.5,764C 1059.67,764.834 1063.83,767.334 1067,771.5C 1070.13,778.391 1072.96,785.391 1075.5,792.5C 1077.02,794.858 1079.02,796.691 1081.5,798C 1081.55,812.734 1078.38,826.901 1072,840.5C 1064.68,851.011 1055.01,858.677 1043,863.5C 1028.94,864.263 1015.78,861.096 1003.5,854C 994.307,845.445 989.974,834.778 990.5,822C 990.865,797.434 1000.87,777.934 1020.5,763.5 Z M 788.5,1032.5 C 787.577,1028.94 787.244,1025.27 787.5,1021.5C 786.68,1015.81 786.68,1009.97 787.5,1004C 793.366,973.354 798.366,942.521 802.5,911.5C 810.044,911.216 817.544,911.55 825,912.5C 832.184,911.827 839.35,910.827 846.5,909.5C 851.012,910.086 855.512,910.753 860,911.5C 869.309,909.665 878.809,908.998 888.5,909.5C 892.965,921.593 893.632,933.926 890.5,946.5C 890.899,948.197 891.399,949.863 892,951.5C 892.667,975.167 892.667,998.833 892,1022.5C 890.167,1023.67 888.333,1024.83 886.5,1026C 877.259,1027.98 867.926,1029.31 858.5,1030C 856.956,1030.29 855.623,1030.96 854.5,1032C 837.167,1032.33 819.833,1032.67 802.5,1033C 800.801,1033.96 798.967,1034.46 797,1034.5C 794.119,1033.97 791.285,1033.31 788.5,1032.5 Z"/></g>
<g><path style="opacity:0.071"  d="M 740.5,564.5 C 737.038,565.482 733.371,565.815 729.5,565.5C 729.5,569.5 729.5,573.5 729.5,577.5C 728.515,573.366 728.182,569.032 728.5,564.5C 732.5,564.5 736.5,564.5 740.5,564.5 Z"/></g>
<g><path style="opacity:0.237"  d="M 885.5,594.5 C 879.5,594.5 873.5,594.5 867.5,594.5C 867.5,599.167 867.5,603.833 867.5,608.5C 866.513,603.695 866.179,598.695 866.5,593.5C 873.022,593.177 879.355,593.51 885.5,594.5 Z"/></g>
<g><path style="opacity:0.993"  d="M 1236.5,1049.5 C 1221.68,1048.5 1206.68,1048.17 1191.5,1048.5C 1191.5,1042.17 1191.5,1035.83 1191.5,1029.5C 1189.72,1023.37 1190.39,1017.54 1193.5,1012C 1192.41,1009.56 1191.41,1007.06 1190.5,1004.5C 1193.99,998.142 1194.32,991.642 1191.5,985C 1192.2,981.872 1192.7,978.706 1193,975.5C 1193.33,927.167 1193.67,878.833 1194,830.5C 1194.98,822.862 1195.64,815.195 1196,807.5C 1196.38,806.944 1196.88,806.611 1197.5,806.5C 1199.83,804.833 1201.83,802.833 1203.5,800.5C 1207.92,795.287 1213.58,792.121 1220.5,791C 1223.83,789 1227.17,787 1230.5,785C 1238.95,775.102 1244.61,764.102 1247.5,752C 1252.94,737.025 1258.77,722.192 1265,707.5C 1276.5,691.842 1288,676.175 1299.5,660.5C 1300.91,660.027 1301.57,659.027 1301.5,657.5C 1303.58,653.914 1306.25,650.747 1309.5,648C 1343.73,620.033 1383.07,607.033 1427.5,609C 1434.33,612.924 1440.67,617.59 1446.5,623C 1452.17,623.989 1456.84,626.656 1460.5,631C 1468.86,635.687 1476.36,641.52 1483,648.5C 1485.24,652.748 1488.24,656.414 1492,659.5C 1503.81,679.561 1511.81,701.561 1516,725.5C 1516.98,730.111 1517.48,734.777 1517.5,739.5C 1516.24,760.188 1514.74,780.854 1513,801.5C 1509.48,823.138 1504.48,844.138 1498,864.5C 1493.06,874.045 1488.39,883.711 1484,893.5C 1466.23,906.27 1451.56,921.937 1440,940.5C 1432.39,958.391 1423.72,975.724 1414,992.5C 1412.61,996.215 1411.78,1000.05 1411.5,1004C 1411.86,1013.48 1412.02,1022.98 1412,1032.5C 1412.38,1035.04 1413.21,1037.37 1414.5,1039.5C 1413.62,1042.13 1412.96,1044.8 1412.5,1047.5C 1360.19,1049.16 1307.86,1049.99 1255.5,1050C 1252.54,1050.99 1249.54,1051.82 1246.5,1052.5C 1243.13,1051.49 1239.8,1050.49 1236.5,1049.5 Z M 1470.5,889.5 C 1469.09,889.973 1468.43,890.973 1468.5,892.5C 1466.18,895.126 1463.84,897.793 1461.5,900.5C 1459.09,901.911 1457.42,903.911 1456.5,906.5C 1437.37,925.73 1423.54,948.396 1415,974.5C 1411.92,977.659 1409.58,981.325 1408,985.5C 1405.91,995.25 1403.58,1004.92 1401,1014.5C 1399.85,1021.31 1400.69,1027.81 1403.5,1034C 1402.17,1035.33 1400.83,1036.67 1399.5,1038C 1377.17,1038.33 1354.83,1038.67 1332.5,1039C 1324.18,1042.08 1316.01,1041.58 1308,1037.5C 1304.25,1038.71 1300.42,1039.54 1296.5,1040C 1281.83,1040.67 1267.17,1040.67 1252.5,1040C 1251.5,1039 1250.5,1038 1249.5,1037C 1250.66,1018.57 1250.83,1000.07 1250,981.5C 1248.56,976.859 1245.39,974.859 1240.5,975.5C 1228.81,976.359 1217.14,977.359 1205.5,978.5C 1204.5,978.5 1203.5,978.5 1202.5,978.5C 1202.5,937.167 1202.5,895.833 1202.5,854.5C 1203.71,841.198 1204.88,827.865 1206,814.5C 1212.39,807.553 1220.22,803.053 1229.5,801C 1246.63,786.227 1257.13,767.727 1261,745.5C 1264.74,733.932 1269.08,722.599 1274,711.5C 1284.09,696.326 1294.42,681.326 1305,666.5C 1311.5,660 1318,653.5 1324.5,647C 1330.33,642.25 1336.66,638.25 1343.5,635C 1351.24,632.977 1358.57,629.977 1365.5,626C 1371.41,624.022 1377.41,622.355 1383.5,621C 1394.48,619.444 1405.48,618.444 1416.5,618C 1435.24,621.201 1450.9,629.867 1463.5,644C 1467.23,645.461 1470.73,647.294 1474,649.5C 1475.86,655.223 1479.19,659.89 1484,663.5C 1499.59,686.287 1507.59,711.621 1508,739.5C 1508.67,746.5 1508.67,753.5 1508,760.5C 1506.67,761.833 1505.33,763.167 1504,764.5C 1503.67,773.5 1503.33,782.5 1503,791.5C 1500.28,794.989 1499.78,798.822 1501.5,803C 1499.04,817.244 1497.71,831.411 1497.5,845.5C 1493.44,853.46 1489.28,861.46 1485,869.5C 1480.34,876.325 1475.5,882.991 1470.5,889.5 Z M 1384.5,750.5 C 1394.57,750.105 1404.57,750.605 1414.5,752C 1417.9,753.4 1420.74,755.567 1423,758.5C 1424.69,761.891 1426.86,764.891 1429.5,767.5C 1432.16,778.537 1431.99,789.537 1429,800.5C 1423.81,814.11 1413.81,820.443 1399,819.5C 1388.77,819.15 1378.93,816.984 1369.5,813C 1364.96,806.731 1361.96,799.731 1360.5,792C 1362.14,786.664 1362.98,781.164 1363,775.5C 1365.33,770.833 1367.67,766.167 1370,761.5C 1375.02,757.97 1379.85,754.303 1384.5,750.5 Z M 1292.5,907.5 C 1292.26,905.596 1291.26,904.262 1289.5,903.5C 1289.22,902.711 1288.72,902.044 1288,901.5C 1287.33,892.167 1287.33,882.833 1288,873.5C 1290,868.833 1292,864.167 1294,859.5C 1300.67,853.077 1308.51,848.577 1317.5,846C 1330.2,837.987 1342.87,829.987 1355.5,822C 1373.06,824.489 1390.73,826.323 1408.5,827.5C 1414.88,823.888 1421.05,819.888 1427,815.5C 1428.56,818.294 1428.89,821.294 1428,824.5C 1426.15,832.219 1424.48,839.886 1423,847.5C 1419.92,853.991 1416.59,860.325 1413,866.5C 1402.11,875.735 1391.61,885.569 1381.5,896C 1367.84,903.497 1354.5,911.497 1341.5,920C 1332.81,920.494 1324.14,920.827 1315.5,921C 1311.03,919.013 1306.53,917.18 1302,915.5C 1301.67,915.833 1301.33,916.167 1301,916.5C 1298.61,913.043 1295.78,910.043 1292.5,907.5 Z M 1231.5,987.5 C 1232.5,987.5 1233.5,987.5 1234.5,987.5C 1234.67,1004.84 1234.5,1022.17 1234,1039.5C 1223.58,1040.49 1213.08,1040.82 1202.5,1040.5C 1202.5,1023.5 1202.5,1006.5 1202.5,989.5C 1210.51,989.666 1218.51,989.5 1226.5,989C 1228.38,988.802 1230.05,988.302 1231.5,987.5 Z"/></g>
<g><path style="opacity:0.267"  d="M 1020.5,626.5 C 1021.91,626.973 1022.57,627.973 1022.5,629.5C 1021.09,629.027 1020.43,628.027 1020.5,626.5 Z"/></g>
<g><path style="opacity:0.104"  d="M 1928.5,646.5 C 1930.61,645.532 1932.94,645.198 1935.5,645.5C 1935.81,648.713 1935.48,651.713 1934.5,654.5C 1934.5,651.833 1934.5,649.167 1934.5,646.5C 1932.5,646.5 1930.5,646.5 1928.5,646.5 Z"/></g>
<g><path style="opacity:0.247"  d="M 1301.5,657.5 C 1301.57,659.027 1300.91,660.027 1299.5,660.5C 1299.43,658.973 1300.09,657.973 1301.5,657.5 Z"/></g>
<g><path style="opacity:0.263"  d="M 127.5,678.5 C 129.027,678.427 130.027,679.094 130.5,680.5C 128.973,680.573 127.973,679.906 127.5,678.5 Z"/></g>
<g><path style="opacity:0.995"  d="M 614.5,677.5 C 640.455,675.906 664.788,681.406 687.5,694C 701.15,702.649 711.65,714.149 719,728.5C 721.551,732.935 723.551,737.601 725,742.5C 726.622,779.804 726.955,817.137 726,854.5C 721.332,859.162 718.999,864.828 719,871.5C 718.671,910.85 718.504,950.183 718.5,989.5C 721.372,1009.07 722.205,1028.73 721,1048.5C 712.247,1057.05 702.08,1059.22 690.5,1055C 671.978,1054.19 653.478,1053.03 635,1051.5C 623.992,1052.07 612.992,1052.74 602,1053.5C 588.498,1052.33 574.998,1051.17 561.5,1050C 546.153,1050.06 530.82,1049.89 515.5,1049.5C 508.45,1050.52 501.45,1051.36 494.5,1052C 485.661,1046.75 476.661,1041.75 467.5,1037C 456,1026.17 444.5,1015.33 433,1004.5C 429.38,999.318 426.713,993.652 425,987.5C 422.597,985.695 420.93,983.362 420,980.5C 419.138,973.461 417.305,967.128 414.5,961.5C 395.842,960.667 377.176,960.167 358.5,960C 357.023,957.555 355.19,955.388 353,953.5C 353.54,946.682 354.373,939.848 355.5,933C 354.239,926.892 353.406,920.725 353,914.5C 352.333,895.833 352.333,877.167 353,858.5C 356.835,853.489 358.335,847.823 357.5,841.5C 356.344,827.884 354.344,814.384 351.5,801C 351.795,795.213 353.461,789.88 356.5,785C 371.91,784.025 387.244,784.691 402.5,787C 420.167,787.667 437.833,787.667 455.5,787C 460.57,784.973 465.403,785.473 470,788.5C 471.068,809.182 472.402,829.849 474,850.5C 476.106,845.853 479.606,842.686 484.5,841C 494.401,828.545 507.401,821.545 523.5,820C 556.35,813.359 581.85,823.859 600,851.5C 601.296,830.34 600.129,809.34 596.5,788.5C 597.045,780.479 596.045,772.646 593.5,765C 594.205,762.104 595.205,759.271 596.5,756.5C 595.35,752.566 594.516,748.566 594,744.5C 593.333,726.167 593.333,707.833 594,689.5C 596.868,686.264 599.368,682.764 601.5,679C 606.019,678.825 610.353,678.325 614.5,677.5 Z M 710.5,941.5 C 709.833,974.167 709.167,1006.83 708.5,1039.5C 694.951,1026.12 680.618,1013.62 665.5,1002C 642.561,982.066 619.894,961.732 597.5,941C 592.986,937.909 588.653,934.575 584.5,931C 585.071,926.862 587.404,924.196 591.5,923C 599.572,912.69 605.406,901.19 609,888.5C 610.518,873.867 610.851,859.2 610,844.5C 608.443,821.102 606.777,797.768 605,774.5C 603.863,771.232 603.03,767.898 602.5,764.5C 603.482,760.523 604.482,756.523 605.5,752.5C 604.359,749.245 603.526,745.911 603,742.5C 602.333,727.833 602.333,713.167 603,698.5C 603.468,694.597 604.634,690.93 606.5,687.5C 642.596,680.917 674.096,690.251 701,715.5C 707.089,724.005 712.422,733.005 717,742.5C 718.398,752.138 719.064,761.805 719,771.5C 717.265,776.206 715.431,780.873 713.5,785.5C 713.709,786.086 714.043,786.586 714.5,787C 713,788.5 711.5,790 710,791.5C 709.995,822.554 709.162,853.554 707.5,884.5C 709.329,903.448 710.329,922.448 710.5,941.5 Z M 438.5,991.5 C 438.573,989.973 437.906,988.973 436.5,988.5C 436.34,986.847 435.674,985.514 434.5,984.5C 434.008,982.181 433.008,980.181 431.5,978.5C 427.772,968.857 426.105,958.857 426.5,948.5C 421.905,949.648 417.238,950.481 412.5,951C 396.503,951.5 380.503,951.667 364.5,951.5C 361.562,930.618 360.729,909.618 362,888.5C 363.154,887.257 364.488,886.257 366,885.5C 366.863,863.353 365.53,841.353 362,819.5C 361.168,810.814 361.335,802.147 362.5,793.5C 377.828,794.215 393.161,795.215 408.5,796.5C 415.236,796.491 421.903,795.825 428.5,794.5C 434.842,795.418 441.176,796.418 447.5,797.5C 450.131,797.218 452.631,796.551 455,795.5C 456.875,798.588 458.208,801.921 459,805.5C 459.667,818.833 459.667,832.167 459,845.5C 458.362,846.609 457.862,847.775 457.5,849C 459.971,856.434 460.138,863.934 458,871.5C 455.601,877.363 453.601,883.363 452,889.5C 451.333,899.833 451.333,910.167 452,920.5C 456.946,930.778 463.446,939.944 471.5,948C 478.337,952.253 485.337,956.253 492.5,960C 502.045,960.792 511.545,961.959 521,963.5C 529.936,962.529 538.769,961.029 547.5,959C 558.415,952.96 569.248,946.793 580,940.5C 596.535,956.037 613.368,971.203 630.5,986C 632.087,986.862 633.754,987.529 635.5,988C 643.446,997.279 652.112,1005.95 661.5,1014C 674.109,1023.28 686.109,1033.28 697.5,1044C 690.642,1046.26 683.975,1045.76 677.5,1042.5C 676.707,1042.93 675.873,1043.26 675,1043.5C 615.881,1041.1 556.715,1039.93 497.5,1040C 487.94,1036.89 479.274,1032.22 471.5,1026C 459.904,1014.91 448.904,1003.41 438.5,991.5 Z M 534.5,825.5 C 561.13,824.229 581.297,834.895 595,857.5C 594.857,863.367 596.023,868.867 598.5,874C 596.849,888.97 591.682,902.47 583,914.5C 575.854,919.119 570.854,925.452 568,933.5C 558.968,941.771 548.468,947.604 536.5,951C 529.952,951.12 523.618,952.286 517.5,954.5C 503.484,951.775 490.484,946.608 478.5,939C 462.209,922.37 457.709,902.87 465,880.5C 468.103,875.731 470.769,870.731 473,865.5C 476,863.167 479,860.833 482,858.5C 488.748,846.099 498.915,837.599 512.5,833C 519.578,829.364 526.911,826.864 534.5,825.5 Z"/></g>
<g><path style="opacity:0.163"  d="M 871.5,679.5 C 872.492,687.316 872.826,695.316 872.5,703.5C 873.791,703.263 874.791,703.596 875.5,704.5C 874.167,704.5 872.833,704.5 871.5,704.5C 871.5,696.167 871.5,687.833 871.5,679.5 Z"/></g>
<g><path style="opacity:0.376"  d="M 301.5,684.5 C 323.177,684.167 344.844,684.5 366.5,685.5C 366.376,686.107 366.043,686.44 365.5,686.5C 344.167,685.833 322.833,685.167 301.5,684.5 Z"/></g>
<g><path style="opacity:0.027"  d="M 1935.5,687.5 C 1935.77,689.38 1935.1,690.713 1933.5,691.5C 1933.66,689.847 1934.33,688.514 1935.5,687.5 Z"/></g>
<g><path style="opacity:0.318"  d="M 210.5,717.5 C 208.833,719.833 206.833,721.833 204.5,723.5C 205.5,720.5 207.5,718.5 210.5,717.5 Z"/></g>
<g><path style="opacity:0.993"  d="M 1718.5,736.5 C 1721.09,735.581 1723.09,733.914 1724.5,731.5C 1731.59,724.396 1740.26,720.229 1750.5,719C 1782.1,715.438 1800.77,729.272 1806.5,760.5C 1805.11,774.512 1800.11,787.012 1791.5,798C 1784.14,801.682 1776.8,805.349 1769.5,809C 1759.7,812.7 1749.7,813.366 1739.5,811C 1731.27,808.219 1723.27,804.885 1715.5,801C 1712.13,798.635 1709.96,795.468 1709,791.5C 1706.17,774.509 1707.51,757.842 1713,741.5C 1714.7,739.627 1716.54,737.96 1718.5,736.5 Z M 1752.5,727.5 C 1748.01,728.838 1743.34,730.005 1738.5,731C 1731.97,737.198 1725.8,743.698 1720,750.5C 1718.28,756.689 1717.28,763.022 1717,769.5C 1715.83,771.333 1714.67,773.167 1713.5,775C 1715.9,781.08 1718.06,787.247 1720,793.5C 1725.7,795.935 1731.2,798.769 1736.5,802C 1746.5,802.667 1756.5,802.667 1766.5,802C 1783.32,796.846 1793.49,785.679 1797,768.5C 1798.7,760.592 1796.7,753.926 1791,748.5C 1789.77,743.537 1787.6,739.037 1784.5,735C 1774.81,728.495 1764.14,725.995 1752.5,727.5 Z"/></g>
<g><path style="opacity:0.227"  d="M 1724.5,731.5 C 1723.09,733.914 1721.09,735.581 1718.5,736.5C 1719.91,734.086 1721.91,732.419 1724.5,731.5 Z"/></g>
<g><path style="opacity:0.986"  d="M 1296.5,921.5 C 1296.03,920.094 1295.03,919.427 1293.5,919.5C 1291.97,919.573 1290.97,918.906 1290.5,917.5C 1289.74,915.738 1288.4,914.738 1286.5,914.5C 1277.68,904.534 1274.18,892.867 1276,879.5C 1277.67,872.167 1279.33,864.833 1281,857.5C 1285.17,853.333 1289.33,849.167 1293.5,845C 1301.63,840.953 1309.97,837.286 1318.5,834C 1324.61,828.555 1331.28,823.888 1338.5,820C 1344.71,813.088 1349.55,805.254 1353,796.5C 1349.89,771.885 1359.06,753.718 1380.5,742C 1385.81,740.395 1391.15,738.895 1396.5,737.5C 1407.5,740.112 1418.17,743.612 1428.5,748C 1437.07,756.655 1441.07,767.155 1440.5,779.5C 1440.21,784.269 1439.37,788.936 1438,793.5C 1437.85,804.542 1437.18,815.542 1436,826.5C 1433.61,837.341 1430.61,848.007 1427,858.5C 1424.73,863.098 1422.06,867.431 1419,871.5C 1407.81,881.692 1396.98,892.192 1386.5,903C 1376.44,910.061 1366.1,916.727 1355.5,923C 1335.51,931.961 1315.85,931.461 1296.5,921.5 Z M 1384.5,750.5 C 1379.85,754.303 1375.02,757.97 1370,761.5C 1367.67,766.167 1365.33,770.833 1363,775.5C 1362.98,781.164 1362.14,786.664 1360.5,792C 1361.96,799.731 1364.96,806.731 1369.5,813C 1378.93,816.984 1388.77,819.15 1399,819.5C 1413.81,820.443 1423.81,814.11 1429,800.5C 1431.99,789.537 1432.16,778.537 1429.5,767.5C 1426.86,764.891 1424.69,761.891 1423,758.5C 1420.74,755.567 1417.9,753.4 1414.5,752C 1404.57,750.605 1394.57,750.105 1384.5,750.5 Z M 1292.5,907.5 C 1292.26,905.596 1291.26,904.262 1289.5,903.5C 1289.22,902.711 1288.72,902.044 1288,901.5C 1287.33,892.167 1287.33,882.833 1288,873.5C 1290,868.833 1292,864.167 1294,859.5C 1300.67,853.077 1308.51,848.577 1317.5,846C 1330.2,837.987 1342.87,829.987 1355.5,822C 1373.06,824.489 1390.73,826.323 1408.5,827.5C 1414.88,823.888 1421.05,819.888 1427,815.5C 1428.56,818.294 1428.89,821.294 1428,824.5C 1426.15,832.219 1424.48,839.886 1423,847.5C 1419.92,853.991 1416.59,860.325 1413,866.5C 1402.11,875.735 1391.61,885.569 1381.5,896C 1367.84,903.497 1354.5,911.497 1341.5,920C 1332.81,920.494 1324.14,920.827 1315.5,921C 1311.03,919.013 1306.53,917.18 1302,915.5C 1301.67,915.833 1301.33,916.167 1301,916.5C 1298.61,913.043 1295.78,910.043 1292.5,907.5 Z"/></g>
<g><path style="opacity:0.99"  d="M 1036.5,749.5 C 1065.53,750.44 1084.03,764.44 1092,791.5C 1093.42,797.776 1093.76,804.109 1093,810.5C 1090.96,821.013 1088.3,831.347 1085,841.5C 1081.6,847.568 1077.43,853.068 1072.5,858C 1067.05,859.786 1062.38,862.786 1058.5,867C 1055.38,868.893 1052.05,870.226 1048.5,871C 1037.22,872.55 1025.88,872.883 1014.5,872C 1006.67,867.584 999,862.918 991.5,858C 989.291,856.127 987.458,853.96 986,851.5C 983.058,842.774 980.892,833.94 979.5,825C 981.62,811.445 984.12,797.945 987,784.5C 993.895,774.216 1002.06,765.05 1011.5,757C 1019.04,753.224 1027.04,751.224 1035.5,751C 1036.06,750.617 1036.39,750.117 1036.5,749.5 Z M 1020.5,763.5 C 1000.87,777.934 990.865,797.434 990.5,822C 989.974,834.778 994.307,845.445 1003.5,854C 1015.78,861.096 1028.94,864.263 1043,863.5C 1055.01,858.677 1064.68,851.011 1072,840.5C 1078.38,826.901 1081.55,812.734 1081.5,798C 1079.02,796.691 1077.02,794.858 1075.5,792.5C 1072.96,785.391 1070.13,778.391 1067,771.5C 1063.83,767.334 1059.67,764.834 1054.5,764C 1043.17,763.5 1031.84,763.333 1020.5,763.5 Z"/></g>
<g><path style="opacity:0.157"  d="M 141.5,753.5 C 143.749,754.08 145.415,755.413 146.5,757.5C 144.251,756.92 142.585,755.587 141.5,753.5 Z"/></g>
<g><path style="opacity:0.259"  d="M 1552.5,760.5 C 1552.67,767.508 1552.5,774.508 1552,781.5C 1551.62,782.056 1551.12,782.389 1550.5,782.5C 1551.1,775.035 1551.77,767.702 1552.5,760.5 Z"/></g>
<g><path style="opacity:0.008"  d="M 159.5,773.5 C 160.931,774.78 161.598,776.447 161.5,778.5C 160.069,777.22 159.402,775.553 159.5,773.5 Z"/></g>
<g><path style="opacity:0.01" d="M 1920.5,776.5 C 1921.14,777.097 1921.47,777.93 1921.5,779C 1921.32,780.376 1920.65,781.209 1919.5,781.5C 1920.65,781.209 1921.32,780.376 1921.5,779C 1921.47,777.93 1921.14,777.097 1920.5,776.5 Z"/></g>
<g><path style="opacity:0.188"  d="M 1903.5,793.5 C 1903.57,795.027 1902.91,796.027 1901.5,796.5C 1901.43,794.973 1902.09,793.973 1903.5,793.5 Z"/></g>
<g><path style="opacity:0.333"  d="M 1203.5,800.5 C 1201.83,802.833 1199.83,804.833 1197.5,806.5C 1198.5,803.5 1200.5,801.5 1203.5,800.5 Z"/></g>
<g><path style="opacity:0.28" d="M 1202.5,854.5 C 1202.5,895.833 1202.5,937.167 1202.5,978.5C 1203.5,978.5 1204.5,978.5 1205.5,978.5C 1204.43,979.434 1203.1,979.768 1201.5,979.5C 1201.17,937.663 1201.5,895.997 1202.5,854.5 Z"/></g>
<g><path style="opacity:0.286"  d="M 1470.5,889.5 C 1470.57,891.027 1469.91,892.027 1468.5,892.5C 1468.43,890.973 1469.09,889.973 1470.5,889.5 Z"/></g>
<g><path style="opacity:0.318"  d="M 1461.5,900.5 C 1460.58,903.089 1458.91,905.089 1456.5,906.5C 1457.42,903.911 1459.09,901.911 1461.5,900.5 Z"/></g>
<g><path style="opacity:0.157"  d="M 1143.5,901.5 C 1143.57,903.027 1142.91,904.027 1141.5,904.5C 1141.43,902.973 1142.09,901.973 1143.5,901.5 Z"/></g>
<g><path style="opacity:0.298"  d="M 1289.5,903.5 C 1291.26,904.262 1292.26,905.596 1292.5,907.5C 1290.74,906.738 1289.74,905.404 1289.5,903.5 Z"/></g>
<g><path style="opacity:0.224"  d="M 1286.5,914.5 C 1288.4,914.738 1289.74,915.738 1290.5,917.5C 1288.6,917.262 1287.26,916.262 1286.5,914.5 Z"/></g>
<g><path style="opacity:0.153"  d="M 1293.5,919.5 C 1295.03,919.427 1296.03,920.094 1296.5,921.5C 1294.97,921.573 1293.97,920.906 1293.5,919.5 Z"/></g>
<g><path style="opacity:0.073"  d="M 710.5,941.5 C 710.833,974.507 710.5,1007.51 709.5,1040.5C 708.893,1040.38 708.56,1040.04 708.5,1039.5C 709.167,1006.83 709.833,974.167 710.5,941.5 Z"/></g>
<g><path style="opacity:1" d="M 1955.5,975.5 C 1955.26,969.773 1955.59,964.106 1956.5,958.5C 1959.55,949.867 1965.55,947.034 1974.5,950C 1984.09,961.764 1982.42,971.098 1969.5,978C 1965.5,978.667 1961.5,978.667 1957.5,978C 1956.62,977.292 1955.95,976.458 1955.5,975.5 Z"/></g>
<g><path style="opacity:0.5"  d="M 1956.5,958.5 C 1955.59,964.106 1955.26,969.773 1955.5,975.5C 1954.35,970.35 1954.18,965.016 1955,959.5C 1955.38,958.944 1955.88,958.611 1956.5,958.5 Z"/></g>
<g><path style="opacity:0.987" d="M 1857.5,964.5 C 1861.92,964.961 1865.75,966.627 1869,969.5C 1870.33,974.457 1870.99,979.457 1871,984.5C 1866.17,991.233 1859.67,993.399 1851.5,991C 1843.97,985.963 1842.47,979.463 1847,971.5C 1850,968.262 1853.5,965.929 1857.5,964.5 Z"/></g>
<g><path style="opacity:0.043" d="M 431.5,978.5 C 433.008,980.181 434.008,982.181 434.5,984.5C 432.461,983.089 431.461,981.089 431.5,978.5 Z"/></g>
<g><path style="opacity:0.184" d="M 436.5,988.5 C 437.906,988.973 438.573,989.973 438.5,991.5C 437.094,991.027 436.427,990.027 436.5,988.5 Z"/></g>
<g><path style="opacity:0.244" d="M 787.5,1021.5 C 787.244,1025.27 787.577,1028.94 788.5,1032.5C 787.213,1031.13 786.547,1029.3 786.5,1027C 786.506,1024.97 786.839,1023.13 787.5,1021.5 Z"/></g>
<g><path style="opacity:0.33" d="M 343.5,1038.5 C 344.473,1040.95 344.806,1043.61 344.5,1046.5C 334.319,1046.83 324.319,1046.49 314.5,1045.5C 324.167,1045.5 333.833,1045.5 343.5,1045.5C 343.5,1043.17 343.5,1040.83 343.5,1038.5 Z"/></g>
<g><path style="opacity:0.49" d="M 1191.5,1029.5 C 1191.5,1035.83 1191.5,1042.17 1191.5,1048.5C 1206.68,1048.17 1221.68,1048.5 1236.5,1049.5C 1221.17,1049.5 1205.83,1049.5 1190.5,1049.5C 1190.18,1042.65 1190.51,1035.98 1191.5,1029.5 Z"/></g>
<g><path style="opacity:0.178" d="M 1811.5,1049.5 C 1810.6,1052.39 1810.26,1055.39 1810.5,1058.5C 1809.84,1057.21 1809.51,1055.71 1809.5,1054C 1809.57,1052.01 1810.24,1050.51 1811.5,1049.5 Z"/></g>
<g><path style="opacity:0.124" d="M 1517.5,1058.5 C 1518.4,1059.21 1518.74,1060.21 1518.5,1061.5C 1527.5,1061.5 1536.5,1061.5 1545.5,1061.5C 1536.35,1062.49 1527.01,1062.83 1517.5,1062.5C 1517.5,1061.17 1517.5,1059.83 1517.5,1058.5 Z"/></g>
</g>
</svg>
